<mxfile host="Electron" agent="Mozilla/5.0 (Windows NT 10.0; Win64; x64) AppleWebKit/537.36 (KHTML, like Gecko) draw.io/26.0.16 Chrome/132.0.6834.196 Electron/34.2.0 Safari/537.36" version="26.0.16" pages="5">
  <diagram name="Enter Loan Details" id="13e1069c-82ec-6db2-03f1-153e76fe0fe0">
    <mxGraphModel dx="1728" dy="1037" grid="1" gridSize="10" guides="1" tooltips="1" connect="1" arrows="1" fold="1" page="1" pageScale="1" pageWidth="1100" pageHeight="850" background="none" math="0" shadow="0">
      <root>
        <mxCell id="0" />
        <mxCell id="1" parent="0" />
        <mxCell id="-IdLdtvKttd9p9J5_mVC-1" value=": Loan Analyst" style="shape=umlActor;verticalLabelPosition=bottom;verticalAlign=top;html=1;outlineConnect=0;" parent="1" vertex="1">
          <mxGeometry x="485" y="50" width="30" height="60" as="geometry" />
        </mxCell>
        <mxCell id="-IdLdtvKttd9p9J5_mVC-4" value="" style="endArrow=none;dashed=1;html=1;rounded=0;" parent="1" edge="1">
          <mxGeometry width="50" height="50" relative="1" as="geometry">
            <mxPoint x="500" y="260" as="sourcePoint" />
            <mxPoint x="500" y="140" as="targetPoint" />
          </mxGeometry>
        </mxCell>
        <mxCell id="-IdLdtvKttd9p9J5_mVC-5" value=": System" style="rounded=0;whiteSpace=wrap;html=1;" parent="1" vertex="1">
          <mxGeometry x="690" y="110" width="75" height="30" as="geometry" />
        </mxCell>
        <mxCell id="-IdLdtvKttd9p9J5_mVC-6" value="" style="endArrow=none;dashed=1;html=1;rounded=0;" parent="1" source="-IdLdtvKttd9p9J5_mVC-25" edge="1">
          <mxGeometry width="50" height="50" relative="1" as="geometry">
            <mxPoint x="727.21" y="610" as="sourcePoint" />
            <mxPoint x="727.21" y="140" as="targetPoint" />
          </mxGeometry>
        </mxCell>
        <mxCell id="-IdLdtvKttd9p9J5_mVC-7" value="&lt;span style=&quot;line-height: 107%;&quot;&gt;&lt;font style=&quot;font-size: 10px;&quot;&gt;1. Loan Analyst clicks on ‘New Loan Boarding’ button&lt;/font&gt;&lt;/span&gt;" style="text;whiteSpace=wrap;html=1;fontFamily=Helvetica;fontSize=11;" parent="1" vertex="1">
          <mxGeometry x="200" y="170" width="200" height="40" as="geometry" />
        </mxCell>
        <mxCell id="-IdLdtvKttd9p9J5_mVC-8" value="&lt;p class=&quot;MsoNormal&quot;&gt;&lt;span style=&quot;background-color: transparent; color: light-dark(rgb(0, 0, 0), rgb(255, 255, 255));&quot;&gt;&lt;font style=&quot;font-size: 10px;&quot;&gt;2. System displays New Loan Boarding screen (opening to Customer Information)&lt;/font&gt;&lt;/span&gt;&lt;br&gt;&lt;/p&gt;" style="text;whiteSpace=wrap;html=1;fontFamily=Helvetica;fontSize=11;" parent="1" vertex="1">
          <mxGeometry x="200" y="195" width="200" height="50" as="geometry" />
        </mxCell>
        <mxCell id="-IdLdtvKttd9p9J5_mVC-9" value="&lt;p class=&quot;MsoNormal&quot;&gt;&lt;font style=&quot;font-size: 10px;&quot;&gt;3. Loan Analyst completes fields on screen that are related to Customer and its financial information at the Loan closing date.&lt;/font&gt;&lt;/p&gt;" style="text;whiteSpace=wrap;html=1;fontFamily=Helvetica;fontSize=11;" parent="1" vertex="1">
          <mxGeometry x="200" y="240" width="200" height="50" as="geometry" />
        </mxCell>
        <mxCell id="-IdLdtvKttd9p9J5_mVC-10" value="&lt;p class=&quot;MsoNormal&quot;&gt;&lt;span style=&quot;line-height: 107%;&quot;&gt;4. Loan Analyst selects ‘Cash Flow’ tab/section&amp;nbsp;&lt;/span&gt;&lt;br&gt;&lt;/p&gt;" style="text;whiteSpace=wrap;html=1;fontSize=10;fontFamily=Helvetica;" parent="1" vertex="1">
          <mxGeometry x="200" y="318" width="200" height="50" as="geometry" />
        </mxCell>
        <mxCell id="-IdLdtvKttd9p9J5_mVC-11" value="&lt;p class=&quot;MsoNormal&quot;&gt;5. System displays screen with quantitative fields and empty cash flow schedule&lt;/p&gt;" style="text;whiteSpace=wrap;html=1;fontSize=10;fontFamily=Helvetica;" parent="1" vertex="1">
          <mxGeometry x="200" y="358" width="200" height="50" as="geometry" />
        </mxCell>
        <mxCell id="-IdLdtvKttd9p9J5_mVC-12" value="&lt;p class=&quot;MsoNormal&quot;&gt;&lt;span style=&quot;line-height: 107%;&quot;&gt;6. Loan Analyst fills out fields and selects ‘Generate Cash Flow’&lt;/span&gt;&lt;br&gt;&lt;/p&gt;" style="text;whiteSpace=wrap;html=1;fontSize=10;fontFamily=Helvetica;" parent="1" vertex="1">
          <mxGeometry x="200" y="398" width="200" height="50" as="geometry" />
        </mxCell>
        <mxCell id="-IdLdtvKttd9p9J5_mVC-13" value="&lt;p class=&quot;MsoNormal&quot;&gt;&lt;span style=&quot;line-height: 107%;&quot;&gt;7. System calculates and returns screen populated with a calculated cash flow and&lt;br&gt;amortization schedule.&lt;/span&gt;&lt;br&gt;&lt;/p&gt;" style="text;whiteSpace=wrap;html=1;fontSize=10;fontFamily=Helvetica;" parent="1" vertex="1">
          <mxGeometry x="200" y="438" width="200" height="50" as="geometry" />
        </mxCell>
        <mxCell id="-IdLdtvKttd9p9J5_mVC-15" value="&lt;p class=&quot;MsoNormal&quot;&gt;&lt;span style=&quot;background-color: transparent; color: light-dark(rgb(0, 0, 0), rgb(255, 255, 255));&quot;&gt;8. Loan Analyst review information for correctness and&amp;nbsp;clicks ‘Save’&lt;/span&gt;&lt;br&gt;&lt;/p&gt;&lt;p class=&quot;MsoNormal&quot;&gt;&lt;/p&gt;" style="text;whiteSpace=wrap;html=1;fontSize=10;fontFamily=Helvetica;" parent="1" vertex="1">
          <mxGeometry x="200" y="488" width="200" height="50" as="geometry" />
        </mxCell>
        <mxCell id="-IdLdtvKttd9p9J5_mVC-17" value="" style="html=1;points=[];perimeter=orthogonalPerimeter;rounded=0;shadow=0;comic=0;labelBackgroundColor=none;strokeWidth=1;fontFamily=Verdana;fontSize=12;align=center;" parent="1" vertex="1">
          <mxGeometry x="722.5" y="190" width="10" height="50" as="geometry" />
        </mxCell>
        <mxCell id="-IdLdtvKttd9p9J5_mVC-18" value="4. selectCashFlows()" style="html=1;verticalAlign=bottom;endArrow=block;labelBackgroundColor=none;fontFamily=Verdana;fontSize=12;edgeStyle=elbowEdgeStyle;elbow=vertical;" parent="1" edge="1">
          <mxGeometry relative="1" as="geometry">
            <mxPoint x="506" y="353.22" as="sourcePoint" />
            <mxPoint x="721" y="353.22" as="targetPoint" />
          </mxGeometry>
        </mxCell>
        <mxCell id="-IdLdtvKttd9p9J5_mVC-21" value="2. loan boarding page" style="html=1;verticalAlign=bottom;endArrow=none;labelBackgroundColor=none;fontFamily=Verdana;fontSize=12;edgeStyle=elbowEdgeStyle;elbow=vertical;startArrow=block;startFill=0;dashed=1;" parent="1" edge="1">
          <mxGeometry relative="1" as="geometry">
            <mxPoint x="505" y="232" as="sourcePoint" />
            <mxPoint x="720" y="232" as="targetPoint" />
          </mxGeometry>
        </mxCell>
        <mxCell id="-IdLdtvKttd9p9J5_mVC-23" value="" style="endArrow=none;dashed=1;html=1;rounded=0;" parent="1" edge="1">
          <mxGeometry width="50" height="50" relative="1" as="geometry">
            <mxPoint x="499.76" y="590" as="sourcePoint" />
            <mxPoint x="499.76" y="390" as="targetPoint" />
          </mxGeometry>
        </mxCell>
        <mxCell id="-IdLdtvKttd9p9J5_mVC-24" value="1. selectBoarding()" style="html=1;verticalAlign=bottom;endArrow=block;labelBackgroundColor=none;fontFamily=Verdana;fontSize=12;edgeStyle=elbowEdgeStyle;elbow=vertical;" parent="1" edge="1">
          <mxGeometry relative="1" as="geometry">
            <mxPoint x="507.5" y="193.56" as="sourcePoint" />
            <mxPoint x="722.5" y="193.56" as="targetPoint" />
          </mxGeometry>
        </mxCell>
        <mxCell id="-IdLdtvKttd9p9J5_mVC-26" value="" style="endArrow=none;dashed=1;html=1;rounded=0;" parent="1" source="-IdLdtvKttd9p9J5_mVC-29" target="-IdLdtvKttd9p9J5_mVC-25" edge="1">
          <mxGeometry width="50" height="50" relative="1" as="geometry">
            <mxPoint x="727.21" y="610" as="sourcePoint" />
            <mxPoint x="727.21" y="140" as="targetPoint" />
          </mxGeometry>
        </mxCell>
        <mxCell id="-IdLdtvKttd9p9J5_mVC-25" value="" style="html=1;points=[];perimeter=orthogonalPerimeter;rounded=0;shadow=0;comic=0;labelBackgroundColor=none;strokeWidth=1;fontFamily=Verdana;fontSize=12;align=center;" parent="1" vertex="1">
          <mxGeometry x="722.5" y="340" width="10" height="60" as="geometry" />
        </mxCell>
        <mxCell id="-IdLdtvKttd9p9J5_mVC-27" value="5. cash flow screen" style="html=1;verticalAlign=bottom;endArrow=none;labelBackgroundColor=none;fontFamily=Verdana;fontSize=12;edgeStyle=elbowEdgeStyle;elbow=vertical;startArrow=block;startFill=0;dashed=1;" parent="1" edge="1">
          <mxGeometry x="-0.0008" relative="1" as="geometry">
            <mxPoint x="505" y="390.11" as="sourcePoint" />
            <mxPoint x="720" y="390.11" as="targetPoint" />
            <mxPoint as="offset" />
          </mxGeometry>
        </mxCell>
        <mxCell id="-IdLdtvKttd9p9J5_mVC-30" value="" style="endArrow=none;dashed=1;html=1;rounded=0;" parent="1" source="-IdLdtvKttd9p9J5_mVC-36" target="-IdLdtvKttd9p9J5_mVC-29" edge="1">
          <mxGeometry width="50" height="50" relative="1" as="geometry">
            <mxPoint x="727.21" y="610" as="sourcePoint" />
            <mxPoint x="727" y="320" as="targetPoint" />
          </mxGeometry>
        </mxCell>
        <mxCell id="-IdLdtvKttd9p9J5_mVC-29" value="" style="html=1;points=[];perimeter=orthogonalPerimeter;rounded=0;shadow=0;comic=0;labelBackgroundColor=none;strokeWidth=1;fontFamily=Verdana;fontSize=12;align=center;" parent="1" vertex="1">
          <mxGeometry x="722.5" y="428" width="10" height="52" as="geometry" />
        </mxCell>
        <mxCell id="-IdLdtvKttd9p9J5_mVC-31" value="6. generateCashFlows(data)" style="html=1;verticalAlign=bottom;endArrow=block;labelBackgroundColor=none;fontFamily=Verdana;fontSize=12;edgeStyle=elbowEdgeStyle;elbow=vertical;" parent="1" edge="1">
          <mxGeometry x="0.0002" relative="1" as="geometry">
            <mxPoint x="506" y="435" as="sourcePoint" />
            <mxPoint x="721" y="435" as="targetPoint" />
            <mxPoint as="offset" />
          </mxGeometry>
        </mxCell>
        <mxCell id="-IdLdtvKttd9p9J5_mVC-33" value="7. cash flows/amort table" style="html=1;verticalAlign=bottom;endArrow=none;labelBackgroundColor=none;fontFamily=Verdana;fontSize=12;edgeStyle=elbowEdgeStyle;elbow=vertical;startArrow=block;startFill=0;dashed=1;" parent="1" edge="1">
          <mxGeometry x="0.0011" relative="1" as="geometry">
            <mxPoint x="505" y="473.71999999999997" as="sourcePoint" />
            <mxPoint x="720" y="473.71999999999997" as="targetPoint" />
            <mxPoint as="offset" />
          </mxGeometry>
        </mxCell>
        <mxCell id="-IdLdtvKttd9p9J5_mVC-35" value="8. saveRecord(data)" style="html=1;verticalAlign=bottom;endArrow=block;labelBackgroundColor=none;fontFamily=Verdana;fontSize=12;edgeStyle=elbowEdgeStyle;elbow=vertical;" parent="1" edge="1">
          <mxGeometry x="-0.0008" relative="1" as="geometry">
            <mxPoint x="506" y="519.11" as="sourcePoint" />
            <mxPoint x="721" y="519.11" as="targetPoint" />
            <mxPoint as="offset" />
          </mxGeometry>
        </mxCell>
        <mxCell id="-IdLdtvKttd9p9J5_mVC-37" value="" style="endArrow=none;dashed=1;html=1;rounded=0;" parent="1" target="-IdLdtvKttd9p9J5_mVC-36" edge="1">
          <mxGeometry width="50" height="50" relative="1" as="geometry">
            <mxPoint x="727" y="590" as="sourcePoint" />
            <mxPoint x="727" y="398" as="targetPoint" />
          </mxGeometry>
        </mxCell>
        <mxCell id="-IdLdtvKttd9p9J5_mVC-36" value="" style="html=1;points=[];perimeter=orthogonalPerimeter;rounded=0;shadow=0;comic=0;labelBackgroundColor=none;strokeWidth=1;fontFamily=Verdana;fontSize=12;align=center;" parent="1" vertex="1">
          <mxGeometry x="722.5" y="505" width="10" height="55" as="geometry" />
        </mxCell>
        <mxCell id="-IdLdtvKttd9p9J5_mVC-38" value="confirmation" style="html=1;verticalAlign=bottom;endArrow=none;labelBackgroundColor=none;fontFamily=Verdana;fontSize=12;edgeStyle=elbowEdgeStyle;elbow=vertical;startArrow=block;startFill=0;dashed=1;" parent="1" edge="1">
          <mxGeometry relative="1" as="geometry">
            <mxPoint x="505" y="551" as="sourcePoint" />
            <mxPoint x="720" y="551" as="targetPoint" />
          </mxGeometry>
        </mxCell>
        <mxCell id="dlenStvr8IAHzVX3Lhku-1" value="&lt;span style=&quot;line-height: 107%;&quot;&gt;&lt;font style=&quot;font-size: 10px;&quot;&gt;&lt;u&gt;Enter Loan Details&lt;/u&gt;&lt;/font&gt;&lt;/span&gt;" style="text;whiteSpace=wrap;html=1;" parent="1" vertex="1">
          <mxGeometry x="250" y="130" width="90" height="50" as="geometry" />
        </mxCell>
        <mxCell id="GbV2dsk8WoiF9G3ck37_-1" value="&lt;p class=&quot;MsoNormal&quot;&gt;&lt;span style=&quot;line-height: 107%;&quot;&gt;9. System creates new record&lt;/span&gt;&lt;br&gt;&lt;/p&gt;" style="text;whiteSpace=wrap;html=1;fontSize=10;fontFamily=Helvetica;" vertex="1" parent="1">
          <mxGeometry x="200" y="524" width="200" height="50" as="geometry" />
        </mxCell>
        <mxCell id="-IdLdtvKttd9p9J5_mVC-16" value="" style="html=1;points=[];perimeter=orthogonalPerimeter;rounded=0;shadow=0;comic=0;labelBackgroundColor=none;strokeWidth=1;fontFamily=Verdana;fontSize=12;align=center;" parent="1" vertex="1">
          <mxGeometry x="495" y="170" width="10" height="400" as="geometry" />
        </mxCell>
        <mxCell id="cEpVfGDkALgS586w6w0Q-1" value="" style="edgeStyle=segmentEdgeStyle;endArrow=blockThin;html=1;curved=0;rounded=0;endSize=8;startSize=8;sourcePerimeterSpacing=0;targetPerimeterSpacing=0;endFill=0;" edge="1" parent="1">
          <mxGeometry width="100" relative="1" as="geometry">
            <mxPoint x="505" y="279.97" as="sourcePoint" />
            <mxPoint x="505" y="289.97" as="targetPoint" />
            <Array as="points">
              <mxPoint x="575" y="279.97" />
            </Array>
          </mxGeometry>
        </mxCell>
        <mxCell id="FK7ybERngmzY3qOZmeOW-1" value="&lt;span style=&quot;color: rgb(0, 0, 0); font-family: Verdana; font-size: 12px; font-style: normal; font-variant-ligatures: normal; font-variant-caps: normal; font-weight: 400; letter-spacing: normal; orphans: 2; text-align: center; text-indent: 0px; text-transform: none; widows: 2; word-spacing: 0px; -webkit-text-stroke-width: 0px; white-space: nowrap; background-color: rgb(251, 251, 251); text-decoration-thickness: initial; text-decoration-style: initial; text-decoration-color: initial; float: none; display: inline !important;&quot;&gt;3. field: = data&lt;/span&gt;" style="text;whiteSpace=wrap;html=1;" vertex="1" parent="1">
          <mxGeometry x="547" y="257" width="140" height="40" as="geometry" />
        </mxCell>
        <mxCell id="cD-d1-b6QcmYdo7UgJqN-2" value="&lt;div&gt;&lt;br&gt;&lt;/div&gt;&lt;div&gt;&lt;br&gt;&lt;/div&gt;&lt;div&gt;&lt;br&gt;&lt;/div&gt;&lt;div&gt;&lt;span style=&quot;background-color: transparent; color: light-dark(rgb(0, 0, 0), rgb(255, 255, 255));&quot;&gt;* [repeat for each field]&lt;/span&gt;&lt;br&gt;&lt;/div&gt;" style="rounded=0;whiteSpace=wrap;html=1;fillColor=none;" vertex="1" parent="1">
          <mxGeometry x="485" y="247" width="255" height="73" as="geometry" />
        </mxCell>
        <mxCell id="5TxuFAp8cEYWSb9tsE2M-1" value="" style="edgeStyle=segmentEdgeStyle;endArrow=blockThin;html=1;curved=0;rounded=0;endSize=8;startSize=8;sourcePerimeterSpacing=0;targetPerimeterSpacing=0;endFill=0;" edge="1" parent="1">
          <mxGeometry width="100" relative="1" as="geometry">
            <mxPoint x="732.5" y="526.99" as="sourcePoint" />
            <mxPoint x="732.5" y="536.99" as="targetPoint" />
            <Array as="points">
              <mxPoint x="802.5" y="526.99" />
            </Array>
          </mxGeometry>
        </mxCell>
        <mxCell id="Iz8pAmOhZda-1PEe_4K9-1" value="&lt;span style=&quot;color: rgb(0, 0, 0); font-family: Verdana; font-size: 12px; font-style: normal; font-variant-ligatures: normal; font-variant-caps: normal; font-weight: 400; letter-spacing: normal; orphans: 2; text-align: center; text-indent: 0px; text-transform: none; widows: 2; word-spacing: 0px; -webkit-text-stroke-width: 0px; white-space: nowrap; background-color: rgb(251, 251, 251); text-decoration-thickness: initial; text-decoration-style: initial; text-decoration-color: initial; float: none; display: inline !important;&quot;&gt;9. save(record)&amp;nbsp;&lt;/span&gt;" style="text;whiteSpace=wrap;html=1;" vertex="1" parent="1">
          <mxGeometry x="740" y="535" width="140" height="40" as="geometry" />
        </mxCell>
      </root>
    </mxGraphModel>
  </diagram>
  <diagram name="Perform Accting Proc" id="2c7nO8IPkMFTDCXS5Own">
    <mxGraphModel dx="1430" dy="858" grid="1" gridSize="10" guides="1" tooltips="1" connect="1" arrows="1" fold="1" page="1" pageScale="1" pageWidth="1100" pageHeight="850" background="none" math="0" shadow="0">
      <root>
        <mxCell id="5JPZca9U2NTzR0_INSel-0" />
        <mxCell id="5JPZca9U2NTzR0_INSel-1" parent="5JPZca9U2NTzR0_INSel-0" />
        <mxCell id="5JPZca9U2NTzR0_INSel-2" value=": Loan Accountant" style="shape=umlActor;verticalLabelPosition=bottom;verticalAlign=top;html=1;outlineConnect=0;" parent="5JPZca9U2NTzR0_INSel-1" vertex="1">
          <mxGeometry x="485" y="50" width="30" height="60" as="geometry" />
        </mxCell>
        <mxCell id="5JPZca9U2NTzR0_INSel-3" value="" style="endArrow=none;dashed=1;html=1;rounded=0;" parent="5JPZca9U2NTzR0_INSel-1" edge="1">
          <mxGeometry width="50" height="50" relative="1" as="geometry">
            <mxPoint x="500" y="830" as="sourcePoint" />
            <mxPoint x="500" y="140" as="targetPoint" />
          </mxGeometry>
        </mxCell>
        <mxCell id="5JPZca9U2NTzR0_INSel-4" value=": System" style="rounded=0;whiteSpace=wrap;html=1;" parent="5JPZca9U2NTzR0_INSel-1" vertex="1">
          <mxGeometry x="690" y="110" width="75" height="30" as="geometry" />
        </mxCell>
        <mxCell id="5JPZca9U2NTzR0_INSel-6" value="&lt;font style=&quot;font-size: 10px;&quot;&gt;&lt;span style=&quot;line-height: 107%;&quot;&gt;&lt;font style=&quot;&quot;&gt;1.&amp;nbsp;&lt;/font&gt;&lt;/span&gt;Loan&amp;nbsp;Accountant selects Reporting tab from Accounting Menu screen&lt;/font&gt;" style="text;whiteSpace=wrap;html=1;" parent="5JPZca9U2NTzR0_INSel-1" vertex="1">
          <mxGeometry x="252" y="164" width="200" height="40" as="geometry" />
        </mxCell>
        <mxCell id="5JPZca9U2NTzR0_INSel-7" value="&lt;p class=&quot;MsoNormal&quot;&gt;&lt;font style=&quot;font-size: 10px;&quot;&gt;3.&amp;nbsp;&lt;/font&gt;&lt;span style=&quot;font-size: 10px; background-color: transparent; color: light-dark(rgb(0, 0, 0), rgb(255, 255, 255));&quot;&gt;Loan&amp;nbsp;Accountant fills out relevant fields and selects ‘Generate Report’ button&lt;/span&gt;&lt;/p&gt;" style="text;whiteSpace=wrap;html=1;" parent="5JPZca9U2NTzR0_INSel-1" vertex="1">
          <mxGeometry x="252" y="267" width="200" height="50" as="geometry" />
        </mxCell>
        <mxCell id="5JPZca9U2NTzR0_INSel-8" value="&lt;p class=&quot;MsoNormal&quot;&gt;&lt;font face=&quot;Helvetica&quot; style=&quot;font-size: 10px;&quot;&gt;4. System processes reporting data.&lt;/font&gt;&lt;/p&gt;" style="text;whiteSpace=wrap;html=1;" parent="5JPZca9U2NTzR0_INSel-1" vertex="1">
          <mxGeometry x="252" y="355" width="200" height="50" as="geometry" />
        </mxCell>
        <mxCell id="5JPZca9U2NTzR0_INSel-10" value="&lt;p class=&quot;MsoNormal&quot;&gt;&lt;font style=&quot;font-size: 10px;&quot;&gt;6.&amp;nbsp;&lt;span style=&quot;font-family: Aptos, sans-serif; background-color: transparent; color: light-dark(rgb(0, 0, 0), rgb(255, 255, 255));&quot;&gt;Loan Accountant selects Close Out Period tab&lt;/span&gt;&lt;/font&gt;&lt;br&gt;&lt;/p&gt;" style="text;whiteSpace=wrap;html=1;" parent="5JPZca9U2NTzR0_INSel-1" vertex="1">
          <mxGeometry x="252" y="503.5" width="200" height="50" as="geometry" />
        </mxCell>
        <mxCell id="5JPZca9U2NTzR0_INSel-11" value="&lt;p class=&quot;MsoNormal&quot;&gt;&lt;span style=&quot;font-size: 10px;&quot;&gt;8. Loan Accountant fills out any relevant fields and selects ‘Close Period and&lt;/span&gt;&lt;br style=&quot;font-size: 10px;&quot;&gt;&lt;span style=&quot;font-size: 10px;&quot;&gt;Transmit Data’&lt;/span&gt;&lt;br&gt;&lt;/p&gt;" style="text;whiteSpace=wrap;html=1;" parent="5JPZca9U2NTzR0_INSel-1" vertex="1">
          <mxGeometry x="252" y="577" width="200" height="50" as="geometry" />
        </mxCell>
        <mxCell id="5JPZca9U2NTzR0_INSel-14" value="" style="html=1;points=[];perimeter=orthogonalPerimeter;rounded=0;shadow=0;comic=0;labelBackgroundColor=none;strokeWidth=1;fontFamily=Verdana;fontSize=12;align=center;" parent="5JPZca9U2NTzR0_INSel-1" vertex="1">
          <mxGeometry x="495" y="170" width="10" height="620" as="geometry" />
        </mxCell>
        <mxCell id="5JPZca9U2NTzR0_INSel-17" value="2. reporting page" style="html=1;verticalAlign=bottom;endArrow=none;labelBackgroundColor=none;fontFamily=Verdana;fontSize=12;edgeStyle=elbowEdgeStyle;elbow=vertical;startArrow=block;startFill=0;dashed=1;" parent="5JPZca9U2NTzR0_INSel-1" edge="1">
          <mxGeometry relative="1" as="geometry">
            <mxPoint x="505" y="228" as="sourcePoint" />
            <mxPoint x="720" y="228" as="targetPoint" />
          </mxGeometry>
        </mxCell>
        <mxCell id="5JPZca9U2NTzR0_INSel-20" value="1. selectReporting()" style="html=1;verticalAlign=bottom;endArrow=block;labelBackgroundColor=none;fontFamily=Verdana;fontSize=12;edgeStyle=elbowEdgeStyle;elbow=vertical;" parent="5JPZca9U2NTzR0_INSel-1" edge="1">
          <mxGeometry x="0.0021" relative="1" as="geometry">
            <mxPoint x="507.5" y="193.56" as="sourcePoint" />
            <mxPoint x="722.5" y="193.56" as="targetPoint" />
            <mxPoint as="offset" />
          </mxGeometry>
        </mxCell>
        <mxCell id="5JPZca9U2NTzR0_INSel-21" value="" style="endArrow=none;dashed=1;html=1;rounded=0;entryX=0.5;entryY=1;entryDx=0;entryDy=0;" parent="5JPZca9U2NTzR0_INSel-1" source="Uo1ef-TGlxqk5wlXt-ML-0" target="5JPZca9U2NTzR0_INSel-4" edge="1">
          <mxGeometry width="50" height="50" relative="1" as="geometry">
            <mxPoint x="728" y="600" as="sourcePoint" />
            <mxPoint x="727.5" y="314" as="targetPoint" />
          </mxGeometry>
        </mxCell>
        <mxCell id="5JPZca9U2NTzR0_INSel-34" value="&lt;span style=&quot;font-size: 10px;&quot;&gt;&lt;u&gt;Perform Accounting Procedures&lt;/u&gt;&lt;/span&gt;" style="text;whiteSpace=wrap;html=1;" parent="5JPZca9U2NTzR0_INSel-1" vertex="1">
          <mxGeometry x="276" y="130" width="152" height="50" as="geometry" />
        </mxCell>
        <mxCell id="oTMTQZ5yp_KqoIphtgK2-1" value="&lt;p class=&quot;MsoNormal&quot;&gt;&lt;font style=&quot;forced-color-adjust: none; color: rgb(0, 0, 0); font-family: Helvetica; font-style: normal; font-variant-ligatures: normal; font-variant-caps: normal; font-weight: 400; letter-spacing: normal; orphans: 2; text-align: left; text-indent: 0px; text-transform: none; widows: 2; word-spacing: 0px; -webkit-text-stroke-width: 0px; white-space: normal; background-color: rgb(251, 251, 251); text-decoration-thickness: initial; text-decoration-style: initial; text-decoration-color: initial; font-size: 10px;&quot; face=&quot;Helvetica&quot;&gt;&lt;/font&gt;&lt;/p&gt;&lt;p style=&quot;forced-color-adjust: none; color: rgb(0, 0, 0); font-family: Helvetica; font-size: 12px; font-style: normal; font-variant-ligatures: normal; font-variant-caps: normal; font-weight: 400; letter-spacing: normal; orphans: 2; text-align: left; text-indent: 0px; text-transform: none; widows: 2; word-spacing: 0px; -webkit-text-stroke-width: 0px; white-space: normal; background-color: rgb(251, 251, 251); text-decoration-thickness: initial; text-decoration-style: initial; text-decoration-color: initial; margin-bottom: 0in; line-height: normal;&quot; class=&quot;MsoNormal&quot;&gt;&lt;font style=&quot;forced-color-adjust: none; font-size: 10px;&quot; face=&quot;Helvetica&quot;&gt;2. System&amp;nbsp;displays screen showing Reporting tab, including multiple reports and input fields&lt;/font&gt;&lt;/p&gt;" style="text;whiteSpace=wrap;html=1;" parent="5JPZca9U2NTzR0_INSel-1" vertex="1">
          <mxGeometry x="252" y="191" width="200" height="50" as="geometry" />
        </mxCell>
        <mxCell id="YbbsuUX8iwRiFIzLBWW9-3" value="&lt;span style=&quot;color: rgb(0, 0, 0); font-family: Verdana; font-size: 12px; font-style: normal; font-variant-ligatures: normal; font-variant-caps: normal; font-weight: 400; letter-spacing: normal; orphans: 2; text-align: center; text-indent: 0px; text-transform: none; widows: 2; word-spacing: 0px; -webkit-text-stroke-width: 0px; white-space: nowrap; background-color: rgb(251, 251, 251); text-decoration-thickness: initial; text-decoration-style: initial; text-decoration-color: initial; float: none; display: inline !important;&quot;&gt;3. reportingField: = selection&lt;/span&gt;" style="text;whiteSpace=wrap;html=1;" parent="5JPZca9U2NTzR0_INSel-1" vertex="1">
          <mxGeometry x="540" y="267" width="140" height="40" as="geometry" />
        </mxCell>
        <mxCell id="5JPZca9U2NTzR0_INSel-15" value="" style="html=1;points=[];perimeter=orthogonalPerimeter;rounded=0;shadow=0;comic=0;labelBackgroundColor=none;strokeWidth=1;fontFamily=Verdana;fontSize=12;align=center;" parent="5JPZca9U2NTzR0_INSel-1" vertex="1">
          <mxGeometry x="722.5" y="190" width="10" height="40" as="geometry" />
        </mxCell>
        <mxCell id="YbbsuUX8iwRiFIzLBWW9-10" value=": Reporting System" style="rounded=0;whiteSpace=wrap;html=1;" parent="5JPZca9U2NTzR0_INSel-1" vertex="1">
          <mxGeometry x="920" y="110" width="70" height="30" as="geometry" />
        </mxCell>
        <mxCell id="YbbsuUX8iwRiFIzLBWW9-11" value="" style="endArrow=none;dashed=1;html=1;rounded=0;entryX=0.5;entryY=1;entryDx=0;entryDy=0;" parent="5JPZca9U2NTzR0_INSel-1" target="YbbsuUX8iwRiFIzLBWW9-10" edge="1">
          <mxGeometry width="50" height="50" relative="1" as="geometry">
            <mxPoint x="955" y="830" as="sourcePoint" />
            <mxPoint x="953.5" y="313" as="targetPoint" />
          </mxGeometry>
        </mxCell>
        <mxCell id="YbbsuUX8iwRiFIzLBWW9-13" value="" style="html=1;points=[];perimeter=orthogonalPerimeter;rounded=0;shadow=0;comic=0;labelBackgroundColor=none;strokeWidth=1;fontFamily=Verdana;fontSize=12;align=center;" parent="5JPZca9U2NTzR0_INSel-1" vertex="1">
          <mxGeometry x="950" y="396" width="10" height="61" as="geometry" />
        </mxCell>
        <mxCell id="YbbsuUX8iwRiFIzLBWW9-21" value="&lt;p class=&quot;MsoNormal&quot;&gt;&lt;font style=&quot;forced-color-adjust: none; color: rgb(0, 0, 0); font-family: Helvetica; font-style: normal; font-variant-ligatures: normal; font-variant-caps: normal; font-weight: 400; letter-spacing: normal; orphans: 2; text-align: left; text-indent: 0px; text-transform: none; widows: 2; word-spacing: 0px; -webkit-text-stroke-width: 0px; white-space: normal; background-color: rgb(251, 251, 251); text-decoration-thickness: initial; text-decoration-style: initial; text-decoration-color: initial; font-size: 10px;&quot;&gt;&lt;/font&gt;&lt;/p&gt;&lt;p style=&quot;forced-color-adjust: none; color: rgb(0, 0, 0); font-family: Helvetica; font-size: 12px; font-style: normal; font-variant-ligatures: normal; font-variant-caps: normal; font-weight: 400; letter-spacing: normal; orphans: 2; text-align: left; text-indent: 0px; text-transform: none; widows: 2; word-spacing: 0px; -webkit-text-stroke-width: 0px; white-space: normal; background-color: rgb(251, 251, 251); text-decoration-thickness: initial; text-decoration-style: initial; text-decoration-color: initial; margin-bottom: 0in; line-height: normal;&quot; class=&quot;MsoNormal&quot;&gt;&lt;font style=&quot;forced-color-adjust: none; font-size: 10px;&quot; face=&quot;Helvetica&quot;&gt;9. System locks period&#39;s accounting data and transmits&amp;nbsp;to external Corporate Accounting System&lt;/font&gt;&lt;/p&gt;" style="text;whiteSpace=wrap;html=1;" parent="5JPZca9U2NTzR0_INSel-1" vertex="1">
          <mxGeometry x="252" y="639" width="200" height="50" as="geometry" />
        </mxCell>
        <mxCell id="tHFkriaawT3VQW_BLLCq-0" value="&lt;div&gt;&lt;br&gt;&lt;/div&gt;&lt;div&gt;&lt;br&gt;&lt;/div&gt;&lt;div&gt;&lt;span style=&quot;background-color: transparent; color: light-dark(rgb(0, 0, 0), rgb(255, 255, 255));&quot;&gt;* [repeat for each field]&lt;/span&gt;&lt;br&gt;&lt;/div&gt;" style="rounded=0;whiteSpace=wrap;html=1;fillColor=none;" parent="5JPZca9U2NTzR0_INSel-1" vertex="1">
          <mxGeometry x="485" y="270.5" width="255" height="43" as="geometry" />
        </mxCell>
        <mxCell id="Uo1ef-TGlxqk5wlXt-ML-1" value="" style="endArrow=none;dashed=1;html=1;rounded=0;entryX=0.5;entryY=1;entryDx=0;entryDy=0;" parent="5JPZca9U2NTzR0_INSel-1" target="Uo1ef-TGlxqk5wlXt-ML-0" edge="1">
          <mxGeometry width="50" height="50" relative="1" as="geometry">
            <mxPoint x="727" y="830" as="sourcePoint" />
            <mxPoint x="728" y="140" as="targetPoint" />
          </mxGeometry>
        </mxCell>
        <mxCell id="Uo1ef-TGlxqk5wlXt-ML-0" value="" style="html=1;points=[];perimeter=orthogonalPerimeter;rounded=0;shadow=0;comic=0;labelBackgroundColor=none;strokeWidth=1;fontFamily=Verdana;fontSize=12;align=center;" parent="5JPZca9U2NTzR0_INSel-1" vertex="1">
          <mxGeometry x="722.5" y="337.5" width="10" height="134.5" as="geometry" />
        </mxCell>
        <mxCell id="Uo1ef-TGlxqk5wlXt-ML-2" value="generateReport(List&amp;lt;selections&amp;gt;)" style="html=1;verticalAlign=bottom;endArrow=block;labelBackgroundColor=none;fontFamily=Verdana;fontSize=12;edgeStyle=elbowEdgeStyle;elbow=vertical;" parent="5JPZca9U2NTzR0_INSel-1" edge="1">
          <mxGeometry x="0.0021" relative="1" as="geometry">
            <mxPoint x="505" y="346.18" as="sourcePoint" />
            <mxPoint x="720" y="346.18" as="targetPoint" />
            <mxPoint as="offset" />
          </mxGeometry>
        </mxCell>
        <mxCell id="Uo1ef-TGlxqk5wlXt-ML-3" value="report" style="html=1;verticalAlign=bottom;endArrow=none;labelBackgroundColor=none;fontFamily=Verdana;fontSize=12;edgeStyle=elbowEdgeStyle;elbow=vertical;startArrow=block;startFill=0;dashed=1;exitX=1.119;exitY=0.789;exitDx=0;exitDy=0;exitPerimeter=0;entryX=-0.2;entryY=0.689;entryDx=0;entryDy=0;entryPerimeter=0;" parent="5JPZca9U2NTzR0_INSel-1" edge="1">
          <mxGeometry x="-0.0093" relative="1" as="geometry">
            <mxPoint x="733.6899999999996" y="445.6205" as="sourcePoint" />
            <mxPoint x="948" y="446.029" as="targetPoint" />
            <mxPoint as="offset" />
          </mxGeometry>
        </mxCell>
        <mxCell id="5Wt7VY69U8Uh6CLfERKe-0" value=": Corp Acct System" style="rounded=0;whiteSpace=wrap;html=1;" parent="5JPZca9U2NTzR0_INSel-1" vertex="1">
          <mxGeometry x="1140" y="110" width="70" height="30" as="geometry" />
        </mxCell>
        <mxCell id="5Wt7VY69U8Uh6CLfERKe-1" value="" style="endArrow=none;dashed=1;html=1;rounded=0;entryX=0.5;entryY=1;entryDx=0;entryDy=0;" parent="5JPZca9U2NTzR0_INSel-1" source="5Wt7VY69U8Uh6CLfERKe-2" target="5Wt7VY69U8Uh6CLfERKe-0" edge="1">
          <mxGeometry width="50" height="50" relative="1" as="geometry">
            <mxPoint x="1174" y="600" as="sourcePoint" />
            <mxPoint x="1173.5" y="313" as="targetPoint" />
          </mxGeometry>
        </mxCell>
        <mxCell id="5Wt7VY69U8Uh6CLfERKe-3" value="" style="endArrow=none;dashed=1;html=1;rounded=0;entryX=0.5;entryY=1;entryDx=0;entryDy=0;" parent="5JPZca9U2NTzR0_INSel-1" target="5Wt7VY69U8Uh6CLfERKe-2" edge="1">
          <mxGeometry width="50" height="50" relative="1" as="geometry">
            <mxPoint x="1175" y="830" as="sourcePoint" />
            <mxPoint x="1175" y="140" as="targetPoint" />
          </mxGeometry>
        </mxCell>
        <mxCell id="5Wt7VY69U8Uh6CLfERKe-2" value="" style="html=1;points=[];perimeter=orthogonalPerimeter;rounded=0;shadow=0;comic=0;labelBackgroundColor=none;strokeWidth=1;fontFamily=Verdana;fontSize=12;align=center;" parent="5JPZca9U2NTzR0_INSel-1" vertex="1">
          <mxGeometry x="1170" y="694" width="10" height="55" as="geometry" />
        </mxCell>
        <mxCell id="5Wt7VY69U8Uh6CLfERKe-5" value="5. generateReport(data)" style="html=1;verticalAlign=bottom;endArrow=block;labelBackgroundColor=none;fontFamily=Verdana;fontSize=12;edgeStyle=elbowEdgeStyle;elbow=vertical;entryX=-0.1;entryY=0.328;entryDx=0;entryDy=0;entryPerimeter=0;" parent="5JPZca9U2NTzR0_INSel-1" target="YbbsuUX8iwRiFIzLBWW9-13" edge="1">
          <mxGeometry x="-0.0115" relative="1" as="geometry">
            <mxPoint x="733.5" y="415.18" as="sourcePoint" />
            <mxPoint x="940" y="416" as="targetPoint" />
            <mxPoint as="offset" />
          </mxGeometry>
        </mxCell>
        <mxCell id="5Wt7VY69U8Uh6CLfERKe-7" value="&lt;span style=&quot;color: rgb(0, 0, 0); font-family: Helvetica; font-size: 10px; font-style: normal; font-variant-ligatures: normal; font-variant-caps: normal; font-weight: 400; letter-spacing: normal; orphans: 2; text-align: left; text-indent: 0px; text-transform: none; widows: 2; word-spacing: 0px; -webkit-text-stroke-width: 0px; white-space: normal; background-color: rgb(251, 251, 251); text-decoration-thickness: initial; text-decoration-style: initial; text-decoration-color: initial; float: none; display: inline !important;&quot;&gt;5. System sends relevant information to external Reporting&amp;nbsp;System and displays returned report&lt;/span&gt;" style="text;whiteSpace=wrap;html=1;" parent="5JPZca9U2NTzR0_INSel-1" vertex="1">
          <mxGeometry x="252" y="405" width="198" height="40" as="geometry" />
        </mxCell>
        <mxCell id="YbbsuUX8iwRiFIzLBWW9-1" value="" style="edgeStyle=segmentEdgeStyle;endArrow=blockThin;html=1;curved=0;rounded=0;endSize=8;startSize=8;sourcePerimeterSpacing=0;targetPerimeterSpacing=0;endFill=0;" parent="5JPZca9U2NTzR0_INSel-1" edge="1">
          <mxGeometry width="100" relative="1" as="geometry">
            <mxPoint x="505" y="288.97" as="sourcePoint" />
            <mxPoint x="505" y="298.97" as="targetPoint" />
            <Array as="points">
              <mxPoint x="575" y="288.97" />
            </Array>
          </mxGeometry>
        </mxCell>
        <mxCell id="bfwG3TfPZI44eTgzO57n-0" value="" style="edgeStyle=segmentEdgeStyle;endArrow=blockThin;html=1;curved=0;rounded=0;endSize=8;startSize=8;sourcePerimeterSpacing=0;targetPerimeterSpacing=0;endFill=0;" parent="5JPZca9U2NTzR0_INSel-1" edge="1">
          <mxGeometry width="100" relative="1" as="geometry">
            <mxPoint x="732.5" y="357.99" as="sourcePoint" />
            <mxPoint x="732.5" y="367.99" as="targetPoint" />
            <Array as="points">
              <mxPoint x="802.5" y="357.99" />
            </Array>
          </mxGeometry>
        </mxCell>
        <mxCell id="bfwG3TfPZI44eTgzO57n-1" value="&lt;span style=&quot;color: rgb(0, 0, 0); font-family: Verdana; font-size: 12px; font-style: normal; font-variant-ligatures: normal; font-variant-caps: normal; font-weight: 400; letter-spacing: normal; orphans: 2; text-align: center; text-indent: 0px; text-transform: none; widows: 2; word-spacing: 0px; -webkit-text-stroke-width: 0px; white-space: nowrap; background-color: rgb(251, 251, 251); text-decoration-thickness: initial; text-decoration-style: initial; text-decoration-color: initial; float: none; display: inline !important;&quot;&gt;4. generateReportData(selections)&amp;nbsp;&lt;/span&gt;" style="text;whiteSpace=wrap;html=1;" parent="5JPZca9U2NTzR0_INSel-1" vertex="1">
          <mxGeometry x="740" y="366" width="140" height="40" as="geometry" />
        </mxCell>
        <mxCell id="bfwG3TfPZI44eTgzO57n-3" value="report" style="html=1;verticalAlign=bottom;endArrow=none;labelBackgroundColor=none;fontFamily=Verdana;fontSize=12;edgeStyle=elbowEdgeStyle;elbow=vertical;startArrow=block;startFill=0;dashed=1;exitX=0.75;exitY=0.788;exitDx=0;exitDy=0;exitPerimeter=0;entryX=-0.064;entryY=0.973;entryDx=0;entryDy=0;entryPerimeter=0;" parent="5JPZca9U2NTzR0_INSel-1" edge="1">
          <mxGeometry x="-0.0309" relative="1" as="geometry">
            <mxPoint x="505" y="462.21" as="sourcePoint" />
            <mxPoint x="721.8599999999997" y="462.36850000000004" as="targetPoint" />
            <mxPoint as="offset" />
          </mxGeometry>
        </mxCell>
        <mxCell id="bfwG3TfPZI44eTgzO57n-4" value="6. closePeriod()" style="html=1;verticalAlign=bottom;endArrow=block;labelBackgroundColor=none;fontFamily=Verdana;fontSize=12;edgeStyle=elbowEdgeStyle;elbow=vertical;" parent="5JPZca9U2NTzR0_INSel-1" edge="1">
          <mxGeometry x="0.0021" relative="1" as="geometry">
            <mxPoint x="505.5" y="534.5" as="sourcePoint" />
            <mxPoint x="720.5" y="534.5" as="targetPoint" />
            <mxPoint as="offset" />
          </mxGeometry>
        </mxCell>
        <mxCell id="bfwG3TfPZI44eTgzO57n-5" value="" style="html=1;points=[];perimeter=orthogonalPerimeter;rounded=0;shadow=0;comic=0;labelBackgroundColor=none;strokeWidth=1;fontFamily=Verdana;fontSize=12;align=center;" parent="5JPZca9U2NTzR0_INSel-1" vertex="1">
          <mxGeometry x="722.5" y="590" width="10" height="170" as="geometry" />
        </mxCell>
        <mxCell id="bfwG3TfPZI44eTgzO57n-8" value="&lt;p class=&quot;MsoNormal&quot;&gt;&lt;font style=&quot;font-size: 10px;&quot;&gt;7.&amp;nbsp;&lt;span style=&quot;font-family: Aptos, sans-serif; background-color: transparent; color: light-dark(rgb(0, 0, 0), rgb(255, 255, 255));&quot;&gt;System displays Period Close screen&lt;/span&gt;&lt;/font&gt;&lt;br&gt;&lt;/p&gt;" style="text;whiteSpace=wrap;html=1;" parent="5JPZca9U2NTzR0_INSel-1" vertex="1">
          <mxGeometry x="252" y="546" width="200" height="50" as="geometry" />
        </mxCell>
        <mxCell id="bfwG3TfPZI44eTgzO57n-9" value="7. period close page" style="html=1;verticalAlign=bottom;endArrow=none;labelBackgroundColor=none;fontFamily=Verdana;fontSize=12;edgeStyle=elbowEdgeStyle;elbow=vertical;startArrow=block;startFill=0;dashed=1;" parent="5JPZca9U2NTzR0_INSel-1" edge="1">
          <mxGeometry relative="1" as="geometry">
            <mxPoint x="507.5" y="570.5799999999999" as="sourcePoint" />
            <mxPoint x="722.5" y="570.5799999999999" as="targetPoint" />
          </mxGeometry>
        </mxCell>
        <mxCell id="bfwG3TfPZI44eTgzO57n-10" value="" style="edgeStyle=segmentEdgeStyle;endArrow=blockThin;html=1;curved=0;rounded=0;endSize=8;startSize=8;sourcePerimeterSpacing=0;targetPerimeterSpacing=0;endFill=0;" parent="5JPZca9U2NTzR0_INSel-1" edge="1">
          <mxGeometry width="100" relative="1" as="geometry">
            <mxPoint x="505" y="611" as="sourcePoint" />
            <mxPoint x="505" y="621" as="targetPoint" />
            <Array as="points">
              <mxPoint x="575" y="611" />
            </Array>
          </mxGeometry>
        </mxCell>
        <mxCell id="bfwG3TfPZI44eTgzO57n-11" value="&lt;span style=&quot;color: rgb(0, 0, 0); font-family: Verdana; font-size: 12px; font-style: normal; font-variant-ligatures: normal; font-variant-caps: normal; font-weight: 400; letter-spacing: normal; orphans: 2; text-align: center; text-indent: 0px; text-transform: none; widows: 2; word-spacing: 0px; -webkit-text-stroke-width: 0px; white-space: nowrap; background-color: rgb(251, 251, 251); text-decoration-thickness: initial; text-decoration-style: initial; text-decoration-color: initial; float: none; display: inline !important;&quot;&gt;8. perCloseField: = selection&lt;/span&gt;" style="text;whiteSpace=wrap;html=1;" parent="5JPZca9U2NTzR0_INSel-1" vertex="1">
          <mxGeometry x="535" y="588" width="140" height="40" as="geometry" />
        </mxCell>
        <mxCell id="bfwG3TfPZI44eTgzO57n-12" value="closePeriod(periodID)" style="html=1;verticalAlign=bottom;endArrow=block;labelBackgroundColor=none;fontFamily=Verdana;fontSize=12;edgeStyle=elbowEdgeStyle;elbow=vertical;" parent="5JPZca9U2NTzR0_INSel-1" edge="1">
          <mxGeometry x="0.0047" relative="1" as="geometry">
            <mxPoint x="505" y="644" as="sourcePoint" />
            <mxPoint x="720" y="644" as="targetPoint" />
            <mxPoint as="offset" />
          </mxGeometry>
        </mxCell>
        <mxCell id="bfwG3TfPZI44eTgzO57n-13" value="" style="edgeStyle=segmentEdgeStyle;endArrow=blockThin;html=1;curved=0;rounded=0;endSize=8;startSize=8;sourcePerimeterSpacing=0;targetPerimeterSpacing=0;endFill=0;" parent="5JPZca9U2NTzR0_INSel-1" edge="1">
          <mxGeometry width="100" relative="1" as="geometry">
            <mxPoint x="732.5" y="669.97" as="sourcePoint" />
            <mxPoint x="732.5" y="679.97" as="targetPoint" />
            <Array as="points">
              <mxPoint x="802.5" y="669.97" />
            </Array>
          </mxGeometry>
        </mxCell>
        <mxCell id="bfwG3TfPZI44eTgzO57n-14" value="&lt;span style=&quot;color: rgb(0, 0, 0); font-family: Verdana; font-size: 12px; font-style: normal; font-variant-ligatures: normal; font-variant-caps: normal; font-weight: 400; letter-spacing: normal; orphans: 2; text-align: center; text-indent: 0px; text-transform: none; widows: 2; word-spacing: 0px; -webkit-text-stroke-width: 0px; white-space: nowrap; background-color: rgb(251, 251, 251); text-decoration-thickness: initial; text-decoration-style: initial; text-decoration-color: initial; float: none; display: inline !important;&quot;&gt;9. finalizePeriod(periodID)&lt;/span&gt;" style="text;whiteSpace=wrap;html=1;" parent="5JPZca9U2NTzR0_INSel-1" vertex="1">
          <mxGeometry x="740" y="649" width="140" height="40" as="geometry" />
        </mxCell>
        <mxCell id="bfwG3TfPZI44eTgzO57n-18" value="transmitPeriodData(data)" style="html=1;verticalAlign=bottom;endArrow=block;labelBackgroundColor=none;fontFamily=Verdana;fontSize=12;edgeStyle=elbowEdgeStyle;elbow=vertical;entryX=-0.012;entryY=0.253;entryDx=0;entryDy=0;entryPerimeter=0;" parent="5JPZca9U2NTzR0_INSel-1" target="5Wt7VY69U8Uh6CLfERKe-2" edge="1">
          <mxGeometry x="-0.5086" y="1" relative="1" as="geometry">
            <mxPoint x="732.5" y="709.33" as="sourcePoint" />
            <mxPoint x="1167" y="707.8550000000002" as="targetPoint" />
            <mxPoint as="offset" />
          </mxGeometry>
        </mxCell>
        <mxCell id="bfwG3TfPZI44eTgzO57n-19" value="confirmation" style="html=1;verticalAlign=bottom;endArrow=none;labelBackgroundColor=none;fontFamily=Verdana;fontSize=12;edgeStyle=elbowEdgeStyle;elbow=horizontal;startArrow=block;startFill=0;dashed=1;exitX=0.95;exitY=0.863;exitDx=0;exitDy=0;exitPerimeter=0;entryX=-0.2;entryY=0.689;entryDx=0;entryDy=0;entryPerimeter=0;" parent="5JPZca9U2NTzR0_INSel-1" edge="1">
          <mxGeometry x="0.4021" y="1" relative="1" as="geometry">
            <mxPoint x="732" y="740.2299999999998" as="sourcePoint" />
            <mxPoint x="1170" y="739.529" as="targetPoint" />
            <mxPoint as="offset" />
          </mxGeometry>
        </mxCell>
        <mxCell id="bfwG3TfPZI44eTgzO57n-20" value="" style="html=1;points=[];perimeter=orthogonalPerimeter;rounded=0;shadow=0;comic=0;labelBackgroundColor=none;strokeWidth=1;fontFamily=Verdana;fontSize=12;align=center;" parent="5JPZca9U2NTzR0_INSel-1" vertex="1">
          <mxGeometry x="722.5" y="519" width="10" height="61" as="geometry" />
        </mxCell>
        <mxCell id="bfwG3TfPZI44eTgzO57n-21" value="confirmation" style="html=1;verticalAlign=bottom;endArrow=none;labelBackgroundColor=none;fontFamily=Verdana;fontSize=12;edgeStyle=elbowEdgeStyle;elbow=horizontal;startArrow=block;startFill=0;dashed=1;exitX=1.2;exitY=0.947;exitDx=0;exitDy=0;exitPerimeter=0;entryX=-0.2;entryY=0.689;entryDx=0;entryDy=0;entryPerimeter=0;" parent="5JPZca9U2NTzR0_INSel-1" edge="1">
          <mxGeometry x="-0.0354" y="1" relative="1" as="geometry">
            <mxPoint x="505" y="756.55" as="sourcePoint" />
            <mxPoint x="718" y="755.999" as="targetPoint" />
            <mxPoint as="offset" />
          </mxGeometry>
        </mxCell>
        <mxCell id="bfwG3TfPZI44eTgzO57n-7" value="&lt;div&gt;&lt;br&gt;&lt;/div&gt;&lt;div&gt;&lt;br&gt;&lt;/div&gt;&lt;div&gt;&lt;br&gt;&lt;/div&gt;&lt;div&gt;&lt;br&gt;&lt;/div&gt;&lt;div&gt;&lt;br&gt;&lt;/div&gt;&lt;div&gt;&lt;br&gt;&lt;/div&gt;&lt;div&gt;&lt;br&gt;&lt;/div&gt;&lt;div&gt;&lt;br&gt;&lt;/div&gt;&lt;div&gt;&lt;br&gt;&lt;/div&gt;&lt;div&gt;&lt;br&gt;&lt;/div&gt;&lt;div&gt;&lt;br&gt;&lt;/div&gt;&lt;div&gt;&lt;br&gt;&lt;/div&gt;&lt;div&gt;&lt;br&gt;&lt;/div&gt;&lt;div&gt;&lt;br&gt;&lt;/div&gt;&lt;div&gt;&lt;br&gt;&lt;/div&gt;&lt;div&gt;&lt;span style=&quot;background-color: transparent; color: light-dark(rgb(0, 0, 0), rgb(255, 255, 255));&quot;&gt;* [repeat for each report]&lt;/span&gt;&lt;br&gt;&lt;/div&gt;" style="rounded=0;whiteSpace=wrap;html=1;fillColor=none;" parent="5JPZca9U2NTzR0_INSel-1" vertex="1">
          <mxGeometry x="240" y="260" width="730" height="230" as="geometry" />
        </mxCell>
      </root>
    </mxGraphModel>
  </diagram>
  <diagram name="Generate Cust Invoices" id="AwPE-7cCCDOOiNWv7U_H">
    <mxGraphModel dx="2074" dy="1244" grid="1" gridSize="10" guides="1" tooltips="1" connect="1" arrows="1" fold="1" page="1" pageScale="1" pageWidth="1100" pageHeight="850" background="none" math="0" shadow="0">
      <root>
        <mxCell id="o3OBOqzrow_LPvAAEJiq-0" />
        <mxCell id="o3OBOqzrow_LPvAAEJiq-1" parent="o3OBOqzrow_LPvAAEJiq-0" />
        <mxCell id="o3OBOqzrow_LPvAAEJiq-3" value=": Billing Analyst" style="shape=umlActor;verticalLabelPosition=bottom;verticalAlign=top;html=1;outlineConnect=0;" parent="o3OBOqzrow_LPvAAEJiq-1" vertex="1">
          <mxGeometry x="485" y="50" width="30" height="60" as="geometry" />
        </mxCell>
        <mxCell id="o3OBOqzrow_LPvAAEJiq-4" value="" style="endArrow=none;dashed=1;html=1;rounded=0;" parent="o3OBOqzrow_LPvAAEJiq-1" edge="1">
          <mxGeometry width="50" height="50" relative="1" as="geometry">
            <mxPoint x="500" y="830" as="sourcePoint" />
            <mxPoint x="500" y="140" as="targetPoint" />
          </mxGeometry>
        </mxCell>
        <mxCell id="o3OBOqzrow_LPvAAEJiq-5" value=": System" style="rounded=0;whiteSpace=wrap;html=1;" parent="o3OBOqzrow_LPvAAEJiq-1" vertex="1">
          <mxGeometry x="690" y="110" width="75" height="30" as="geometry" />
        </mxCell>
        <mxCell id="o3OBOqzrow_LPvAAEJiq-6" value="&lt;span style=&quot;font-size: 10px;&quot;&gt;1. Billing Analyst selects ‘Invoices’ page&lt;/span&gt;" style="text;whiteSpace=wrap;html=1;" parent="o3OBOqzrow_LPvAAEJiq-1" vertex="1">
          <mxGeometry x="247" y="172" width="200" height="40" as="geometry" />
        </mxCell>
        <mxCell id="o3OBOqzrow_LPvAAEJiq-7" value="&lt;p class=&quot;MsoNormal&quot;&gt;&lt;span style=&quot;font-size: 10px;&quot;&gt;3. Billing Analyst selects appropriate borrowers, billing periods, and any other&lt;/span&gt;&lt;br style=&quot;font-size: 10px;&quot;&gt;&lt;span style=&quot;font-size: 10px;&quot;&gt;relevant selections.&lt;/span&gt;&lt;span style=&quot;font-size: 10px;&quot;&gt;&amp;nbsp;&amp;nbsp;&lt;/span&gt;&lt;span style=&quot;font-size: 10px;&quot;&gt;Billing Analyst&amp;nbsp;&lt;/span&gt;&lt;span style=&quot;font-size: 10px;&quot;&gt;clicks on ‘Generate’&lt;/span&gt;&lt;br&gt;&lt;/p&gt;" style="text;whiteSpace=wrap;html=1;" parent="o3OBOqzrow_LPvAAEJiq-1" vertex="1">
          <mxGeometry x="252" y="259" width="200" height="50" as="geometry" />
        </mxCell>
        <mxCell id="o3OBOqzrow_LPvAAEJiq-8" value="&lt;p class=&quot;MsoNormal&quot;&gt;&lt;font style=&quot;forced-color-adjust: none; color: rgb(0, 0, 0); font-family: Helvetica; font-style: normal; font-variant-ligatures: normal; font-variant-caps: normal; font-weight: 400; letter-spacing: normal; orphans: 2; text-align: left; text-indent: 0px; text-transform: none; widows: 2; word-spacing: 0px; -webkit-text-stroke-width: 0px; white-space: normal; background-color: rgb(251, 251, 251); text-decoration-thickness: initial; text-decoration-style: initial; text-decoration-color: initial; font-size: 10px;&quot; face=&quot;Helvetica&quot;&gt;&lt;/font&gt;&lt;/p&gt;&lt;p style=&quot;forced-color-adjust: none; color: rgb(0, 0, 0); font-family: Helvetica; font-size: 12px; font-style: normal; font-variant-ligatures: normal; font-variant-caps: normal; font-weight: 400; letter-spacing: normal; orphans: 2; text-align: left; text-indent: 0px; text-transform: none; widows: 2; word-spacing: 0px; -webkit-text-stroke-width: 0px; white-space: normal; background-color: rgb(251, 251, 251); text-decoration-thickness: initial; text-decoration-style: initial; text-decoration-color: initial; margin-bottom: 0in; line-height: normal;&quot; class=&quot;MsoNormal&quot;&gt;&lt;font style=&quot;forced-color-adjust: none; font-size: 10px;&quot; face=&quot;Helvetica&quot;&gt;4. System processes&amp;nbsp;and generates invoice data&lt;/font&gt;&lt;/p&gt;" style="text;whiteSpace=wrap;html=1;" parent="o3OBOqzrow_LPvAAEJiq-1" vertex="1">
          <mxGeometry x="252" y="350" width="200" height="50" as="geometry" />
        </mxCell>
        <mxCell id="o3OBOqzrow_LPvAAEJiq-9" value="&lt;p class=&quot;MsoNormal&quot;&gt;&lt;span style=&quot;font-size: 10px;&quot;&gt;6. Billing Analyst confirms proper selections have been made and selects Email Invoices&lt;/span&gt;&lt;br style=&quot;font-size: 10px;&quot;&gt;&lt;span style=&quot;font-size: 10px;&quot;&gt;to Customer&lt;/span&gt;&lt;br&gt;&lt;/p&gt;" style="text;whiteSpace=wrap;html=1;" parent="o3OBOqzrow_LPvAAEJiq-1" vertex="1">
          <mxGeometry x="252" y="495" width="200" height="50" as="geometry" />
        </mxCell>
        <mxCell id="o3OBOqzrow_LPvAAEJiq-11" value="" style="html=1;points=[];perimeter=orthogonalPerimeter;rounded=0;shadow=0;comic=0;labelBackgroundColor=none;strokeWidth=1;fontFamily=Verdana;fontSize=12;align=center;" parent="o3OBOqzrow_LPvAAEJiq-1" vertex="1">
          <mxGeometry x="495" y="170" width="10" height="650" as="geometry" />
        </mxCell>
        <mxCell id="o3OBOqzrow_LPvAAEJiq-12" value="2. invoices page" style="html=1;verticalAlign=bottom;endArrow=none;labelBackgroundColor=none;fontFamily=Verdana;fontSize=12;edgeStyle=elbowEdgeStyle;elbow=vertical;startArrow=block;startFill=0;dashed=1;" parent="o3OBOqzrow_LPvAAEJiq-1" edge="1">
          <mxGeometry relative="1" as="geometry">
            <mxPoint x="505" y="228" as="sourcePoint" />
            <mxPoint x="720" y="228" as="targetPoint" />
          </mxGeometry>
        </mxCell>
        <mxCell id="o3OBOqzrow_LPvAAEJiq-13" value="1. selectInvoices()" style="html=1;verticalAlign=bottom;endArrow=block;labelBackgroundColor=none;fontFamily=Verdana;fontSize=12;edgeStyle=elbowEdgeStyle;elbow=vertical;" parent="o3OBOqzrow_LPvAAEJiq-1" edge="1">
          <mxGeometry x="-0.0007" relative="1" as="geometry">
            <mxPoint x="507.5" y="193.56" as="sourcePoint" />
            <mxPoint x="722.5" y="193.56" as="targetPoint" />
            <mxPoint as="offset" />
          </mxGeometry>
        </mxCell>
        <mxCell id="o3OBOqzrow_LPvAAEJiq-14" value="" style="endArrow=none;dashed=1;html=1;rounded=0;entryX=0.5;entryY=1;entryDx=0;entryDy=0;" parent="o3OBOqzrow_LPvAAEJiq-1" source="o3OBOqzrow_LPvAAEJiq-25" target="o3OBOqzrow_LPvAAEJiq-5" edge="1">
          <mxGeometry width="50" height="50" relative="1" as="geometry">
            <mxPoint x="728" y="600" as="sourcePoint" />
            <mxPoint x="727.5" y="314" as="targetPoint" />
          </mxGeometry>
        </mxCell>
        <mxCell id="o3OBOqzrow_LPvAAEJiq-15" value="&lt;span style=&quot;font-size: 10px;&quot;&gt;&lt;u&gt;Generate Customer Invoices&lt;/u&gt;&lt;/span&gt;" style="text;whiteSpace=wrap;html=1;" parent="o3OBOqzrow_LPvAAEJiq-1" vertex="1">
          <mxGeometry x="276" y="130" width="152" height="50" as="geometry" />
        </mxCell>
        <mxCell id="o3OBOqzrow_LPvAAEJiq-16" value="&lt;p class=&quot;MsoNormal&quot;&gt;&lt;font style=&quot;forced-color-adjust: none; color: rgb(0, 0, 0); font-family: Helvetica; font-style: normal; font-variant-ligatures: normal; font-variant-caps: normal; font-weight: 400; letter-spacing: normal; orphans: 2; text-align: left; text-indent: 0px; text-transform: none; widows: 2; word-spacing: 0px; -webkit-text-stroke-width: 0px; white-space: normal; background-color: rgb(251, 251, 251); text-decoration-thickness: initial; text-decoration-style: initial; text-decoration-color: initial; font-size: 10px;&quot; face=&quot;Helvetica&quot;&gt;&lt;/font&gt;&lt;/p&gt;&lt;p style=&quot;forced-color-adjust: none; color: rgb(0, 0, 0); font-family: Helvetica; font-size: 12px; font-style: normal; font-variant-ligatures: normal; font-variant-caps: normal; font-weight: 400; letter-spacing: normal; orphans: 2; text-align: left; text-indent: 0px; text-transform: none; widows: 2; word-spacing: 0px; -webkit-text-stroke-width: 0px; white-space: normal; background-color: rgb(251, 251, 251); text-decoration-thickness: initial; text-decoration-style: initial; text-decoration-color: initial; margin-bottom: 0in; line-height: normal;&quot; class=&quot;MsoNormal&quot;&gt;&lt;font style=&quot;forced-color-adjust: none; color: rgb(0, 0, 0); font-family: Helvetica; font-style: normal; font-variant-ligatures: normal; font-variant-caps: normal; font-weight: 400; letter-spacing: normal; orphans: 2; text-align: left; text-indent: 0px; text-transform: none; widows: 2; word-spacing: 0px; -webkit-text-stroke-width: 0px; white-space: normal; background-color: rgb(251, 251, 251); text-decoration-thickness: initial; text-decoration-style: initial; text-decoration-color: initial; font-size: 10px;&quot; face=&quot;Helvetica&quot;&gt;&lt;/font&gt;&lt;/p&gt;&lt;p style=&quot;forced-color-adjust: none; color: rgb(0, 0, 0); font-family: Helvetica; font-size: 12px; font-style: normal; font-variant-ligatures: normal; font-variant-caps: normal; font-weight: 400; letter-spacing: normal; orphans: 2; text-align: left; text-indent: 0px; text-transform: none; widows: 2; word-spacing: 0px; -webkit-text-stroke-width: 0px; white-space: normal; background-color: rgb(251, 251, 251); text-decoration-thickness: initial; text-decoration-style: initial; text-decoration-color: initial; margin-bottom: 0in; line-height: normal;&quot; class=&quot;MsoNormal&quot;&gt;&lt;font style=&quot;forced-color-adjust: none; font-size: 10px;&quot; face=&quot;Helvetica&quot;&gt;2. System displays screen allowing with multiple fields and menu selections&lt;/font&gt;&lt;/p&gt;" style="text;whiteSpace=wrap;html=1;" parent="o3OBOqzrow_LPvAAEJiq-1" vertex="1">
          <mxGeometry x="252" y="191" width="200" height="50" as="geometry" />
        </mxCell>
        <mxCell id="o3OBOqzrow_LPvAAEJiq-17" value="&lt;span style=&quot;color: rgb(0, 0, 0); font-family: Verdana; font-size: 12px; font-style: normal; font-variant-ligatures: normal; font-variant-caps: normal; font-weight: 400; letter-spacing: normal; orphans: 2; text-align: center; text-indent: 0px; text-transform: none; widows: 2; word-spacing: 0px; -webkit-text-stroke-width: 0px; white-space: nowrap; background-color: rgb(251, 251, 251); text-decoration-thickness: initial; text-decoration-style: initial; text-decoration-color: initial; float: none; display: inline !important;&quot;&gt;3. invoiceField: = selection&lt;/span&gt;" style="text;whiteSpace=wrap;html=1;" parent="o3OBOqzrow_LPvAAEJiq-1" vertex="1">
          <mxGeometry x="540" y="267" width="140" height="40" as="geometry" />
        </mxCell>
        <mxCell id="o3OBOqzrow_LPvAAEJiq-18" value="" style="html=1;points=[];perimeter=orthogonalPerimeter;rounded=0;shadow=0;comic=0;labelBackgroundColor=none;strokeWidth=1;fontFamily=Verdana;fontSize=12;align=center;" parent="o3OBOqzrow_LPvAAEJiq-1" vertex="1">
          <mxGeometry x="722.5" y="190" width="10" height="40" as="geometry" />
        </mxCell>
        <mxCell id="o3OBOqzrow_LPvAAEJiq-23" value="&lt;div&gt;&lt;br&gt;&lt;/div&gt;&lt;div&gt;&lt;br&gt;&lt;/div&gt;&lt;div&gt;&lt;span style=&quot;background-color: transparent; color: light-dark(rgb(0, 0, 0), rgb(255, 255, 255));&quot;&gt;* [repeat for each field]&lt;/span&gt;&lt;br&gt;&lt;/div&gt;" style="rounded=0;whiteSpace=wrap;html=1;fillColor=none;" parent="o3OBOqzrow_LPvAAEJiq-1" vertex="1">
          <mxGeometry x="485" y="269.5" width="255" height="43" as="geometry" />
        </mxCell>
        <mxCell id="o3OBOqzrow_LPvAAEJiq-24" value="" style="endArrow=none;dashed=1;html=1;rounded=0;entryX=0.5;entryY=1;entryDx=0;entryDy=0;" parent="o3OBOqzrow_LPvAAEJiq-1" target="o3OBOqzrow_LPvAAEJiq-25" edge="1">
          <mxGeometry width="50" height="50" relative="1" as="geometry">
            <mxPoint x="727" y="830" as="sourcePoint" />
            <mxPoint x="728" y="140" as="targetPoint" />
          </mxGeometry>
        </mxCell>
        <mxCell id="o3OBOqzrow_LPvAAEJiq-25" value="" style="html=1;points=[];perimeter=orthogonalPerimeter;rounded=0;shadow=0;comic=0;labelBackgroundColor=none;strokeWidth=1;fontFamily=Verdana;fontSize=12;align=center;" parent="o3OBOqzrow_LPvAAEJiq-1" vertex="1">
          <mxGeometry x="722.5" y="337.5" width="10" height="134.5" as="geometry" />
        </mxCell>
        <mxCell id="o3OBOqzrow_LPvAAEJiq-26" value="generateInvoices(list&amp;lt;selections&amp;gt;)" style="html=1;verticalAlign=bottom;endArrow=block;labelBackgroundColor=none;fontFamily=Verdana;fontSize=12;edgeStyle=elbowEdgeStyle;elbow=horizontal;" parent="o3OBOqzrow_LPvAAEJiq-1" edge="1">
          <mxGeometry x="0.0021" relative="1" as="geometry">
            <mxPoint x="505" y="346.18" as="sourcePoint" />
            <mxPoint x="720" y="346.18" as="targetPoint" />
            <mxPoint as="offset" />
          </mxGeometry>
        </mxCell>
        <mxCell id="o3OBOqzrow_LPvAAEJiq-28" value=": Email System" style="rounded=0;whiteSpace=wrap;html=1;" parent="o3OBOqzrow_LPvAAEJiq-1" vertex="1">
          <mxGeometry x="970" y="110" width="70" height="30" as="geometry" />
        </mxCell>
        <mxCell id="o3OBOqzrow_LPvAAEJiq-29" value="" style="endArrow=none;dashed=1;html=1;rounded=0;entryX=0.5;entryY=1;entryDx=0;entryDy=0;" parent="o3OBOqzrow_LPvAAEJiq-1" source="o3OBOqzrow_LPvAAEJiq-31" target="o3OBOqzrow_LPvAAEJiq-28" edge="1">
          <mxGeometry width="50" height="50" relative="1" as="geometry">
            <mxPoint x="1004" y="600" as="sourcePoint" />
            <mxPoint x="1003.5" y="313" as="targetPoint" />
          </mxGeometry>
        </mxCell>
        <mxCell id="o3OBOqzrow_LPvAAEJiq-30" value="" style="endArrow=none;dashed=1;html=1;rounded=0;entryX=0.5;entryY=1;entryDx=0;entryDy=0;" parent="o3OBOqzrow_LPvAAEJiq-1" target="o3OBOqzrow_LPvAAEJiq-31" edge="1">
          <mxGeometry width="50" height="50" relative="1" as="geometry">
            <mxPoint x="1005" y="851" as="sourcePoint" />
            <mxPoint x="1005" y="161" as="targetPoint" />
          </mxGeometry>
        </mxCell>
        <mxCell id="o3OBOqzrow_LPvAAEJiq-31" value="" style="html=1;points=[];perimeter=orthogonalPerimeter;rounded=0;shadow=0;comic=0;labelBackgroundColor=none;strokeWidth=1;fontFamily=Verdana;fontSize=12;align=center;" parent="o3OBOqzrow_LPvAAEJiq-1" vertex="1">
          <mxGeometry x="1000" y="761" width="10" height="55" as="geometry" />
        </mxCell>
        <mxCell id="o3OBOqzrow_LPvAAEJiq-33" value="&lt;p style=&quot;margin-bottom: 0in; line-height: normal;&quot; class=&quot;MsoNormal&quot;&gt;&lt;font style=&quot;font-size: 10px;&quot; face=&quot;Helvetica&quot;&gt;5. System process data and refines into invoices.&amp;nbsp; Billing Analyst reviews invoices.&lt;/font&gt;&lt;/p&gt;&lt;div&gt;&lt;font style=&quot;font-size: 10px;&quot; face=&quot;Helvetica&quot;&gt;&lt;br&gt;&lt;/font&gt;&lt;/div&gt;&lt;font style=&quot;font-size: 10px;&quot; face=&quot;Helvetica&quot;&gt;&lt;/font&gt;" style="text;whiteSpace=wrap;html=1;" parent="o3OBOqzrow_LPvAAEJiq-1" vertex="1">
          <mxGeometry x="253" y="400" width="198" height="40" as="geometry" />
        </mxCell>
        <mxCell id="o3OBOqzrow_LPvAAEJiq-34" value="" style="edgeStyle=segmentEdgeStyle;endArrow=blockThin;html=1;curved=0;rounded=0;endSize=8;startSize=8;sourcePerimeterSpacing=0;targetPerimeterSpacing=0;endFill=0;" parent="o3OBOqzrow_LPvAAEJiq-1" edge="1">
          <mxGeometry width="100" relative="1" as="geometry">
            <mxPoint x="505" y="288.97" as="sourcePoint" />
            <mxPoint x="505" y="298.97" as="targetPoint" />
            <Array as="points">
              <mxPoint x="575" y="288.97" />
            </Array>
          </mxGeometry>
        </mxCell>
        <mxCell id="o3OBOqzrow_LPvAAEJiq-35" value="" style="edgeStyle=segmentEdgeStyle;endArrow=blockThin;html=1;curved=0;rounded=0;endSize=8;startSize=8;sourcePerimeterSpacing=0;targetPerimeterSpacing=0;endFill=0;" parent="o3OBOqzrow_LPvAAEJiq-1" edge="1">
          <mxGeometry width="100" relative="1" as="geometry">
            <mxPoint x="732.5" y="357.99" as="sourcePoint" />
            <mxPoint x="732.5" y="367.99" as="targetPoint" />
            <Array as="points">
              <mxPoint x="802.5" y="357.99" />
            </Array>
          </mxGeometry>
        </mxCell>
        <mxCell id="o3OBOqzrow_LPvAAEJiq-36" value="&lt;span style=&quot;color: rgb(0, 0, 0); font-family: Verdana; font-size: 12px; font-style: normal; font-variant-ligatures: normal; font-variant-caps: normal; font-weight: 400; letter-spacing: normal; orphans: 2; text-align: center; text-indent: 0px; text-transform: none; widows: 2; word-spacing: 0px; -webkit-text-stroke-width: 0px; white-space: nowrap; background-color: rgb(251, 251, 251); text-decoration-thickness: initial; text-decoration-style: initial; text-decoration-color: initial; float: none; display: inline !important;&quot;&gt;4. generateInvoiceData(selections)&amp;nbsp;&lt;/span&gt;" style="text;whiteSpace=wrap;html=1;" parent="o3OBOqzrow_LPvAAEJiq-1" vertex="1">
          <mxGeometry x="737" y="366" width="140" height="40" as="geometry" />
        </mxCell>
        <mxCell id="o3OBOqzrow_LPvAAEJiq-37" value="invoices" style="html=1;verticalAlign=bottom;endArrow=none;labelBackgroundColor=none;fontFamily=Verdana;fontSize=12;edgeStyle=elbowEdgeStyle;elbow=vertical;startArrow=block;startFill=0;dashed=1;exitX=0.75;exitY=0.788;exitDx=0;exitDy=0;exitPerimeter=0;entryX=-0.064;entryY=0.973;entryDx=0;entryDy=0;entryPerimeter=0;" parent="o3OBOqzrow_LPvAAEJiq-1" edge="1">
          <mxGeometry x="-0.0309" relative="1" as="geometry">
            <mxPoint x="505" y="462.21" as="sourcePoint" />
            <mxPoint x="721.8599999999997" y="462.36850000000004" as="targetPoint" />
            <mxPoint as="offset" />
          </mxGeometry>
        </mxCell>
        <mxCell id="o3OBOqzrow_LPvAAEJiq-38" value="emailInvoices(list&amp;lt;selections&amp;gt;)" style="html=1;verticalAlign=bottom;endArrow=block;labelBackgroundColor=none;fontFamily=Verdana;fontSize=12;edgeStyle=elbowEdgeStyle;elbow=vertical;" parent="o3OBOqzrow_LPvAAEJiq-1" edge="1">
          <mxGeometry x="-0.0278" y="1" relative="1" as="geometry">
            <mxPoint x="505.5" y="601.5" as="sourcePoint" />
            <mxPoint x="720.5" y="601.5" as="targetPoint" />
            <mxPoint as="offset" />
          </mxGeometry>
        </mxCell>
        <mxCell id="o3OBOqzrow_LPvAAEJiq-39" value="" style="html=1;points=[];perimeter=orthogonalPerimeter;rounded=0;shadow=0;comic=0;labelBackgroundColor=none;strokeWidth=1;fontFamily=Verdana;fontSize=12;align=center;" parent="o3OBOqzrow_LPvAAEJiq-1" vertex="1">
          <mxGeometry x="722.5" y="710" width="10" height="117" as="geometry" />
        </mxCell>
        <mxCell id="o3OBOqzrow_LPvAAEJiq-41" value="7. custom message page" style="html=1;verticalAlign=bottom;endArrow=none;labelBackgroundColor=none;fontFamily=Verdana;fontSize=12;edgeStyle=elbowEdgeStyle;elbow=vertical;startArrow=block;startFill=0;dashed=1;" parent="o3OBOqzrow_LPvAAEJiq-1" edge="1">
          <mxGeometry relative="1" as="geometry">
            <mxPoint x="507.5" y="637.5799999999999" as="sourcePoint" />
            <mxPoint x="722.5" y="637.5799999999999" as="targetPoint" />
          </mxGeometry>
        </mxCell>
        <mxCell id="o3OBOqzrow_LPvAAEJiq-42" value="" style="edgeStyle=segmentEdgeStyle;endArrow=blockThin;html=1;curved=0;rounded=0;endSize=8;startSize=8;sourcePerimeterSpacing=0;targetPerimeterSpacing=0;endFill=0;" parent="o3OBOqzrow_LPvAAEJiq-1" edge="1">
          <mxGeometry width="100" relative="1" as="geometry">
            <mxPoint x="505" y="678" as="sourcePoint" />
            <mxPoint x="505" y="688" as="targetPoint" />
            <Array as="points">
              <mxPoint x="575" y="678" />
            </Array>
          </mxGeometry>
        </mxCell>
        <mxCell id="o3OBOqzrow_LPvAAEJiq-43" value="&lt;span style=&quot;color: rgb(0, 0, 0); font-family: Verdana; font-size: 12px; font-style: normal; font-variant-ligatures: normal; font-variant-caps: normal; font-weight: 400; letter-spacing: normal; orphans: 2; text-align: center; text-indent: 0px; text-transform: none; widows: 2; word-spacing: 0px; -webkit-text-stroke-width: 0px; white-space: nowrap; background-color: rgb(251, 251, 251); text-decoration-thickness: initial; text-decoration-style: initial; text-decoration-color: initial; float: none; display: inline !important;&quot;&gt;8. custMessage: = message&lt;/span&gt;" style="text;whiteSpace=wrap;html=1;" parent="o3OBOqzrow_LPvAAEJiq-1" vertex="1">
          <mxGeometry x="535" y="647" width="140" height="40" as="geometry" />
        </mxCell>
        <mxCell id="o3OBOqzrow_LPvAAEJiq-46" value="&lt;span style=&quot;color: rgb(0, 0, 0); font-family: Verdana; font-size: 12px; font-style: normal; font-variant-ligatures: normal; font-variant-caps: normal; font-weight: 400; letter-spacing: normal; orphans: 2; text-align: center; text-indent: 0px; text-transform: none; widows: 2; word-spacing: 0px; -webkit-text-stroke-width: 0px; white-space: nowrap; background-color: rgb(251, 251, 251); text-decoration-thickness: initial; text-decoration-style: initial; text-decoration-color: initial; float: none; display: inline !important;&quot;&gt;9. formatInvMsg(invoiceList,&amp;nbsp;&lt;/span&gt;&lt;div&gt;&lt;span style=&quot;color: rgb(0, 0, 0); font-family: Verdana; font-size: 12px; font-style: normal; font-variant-ligatures: normal; font-variant-caps: normal; font-weight: 400; letter-spacing: normal; orphans: 2; text-align: center; text-indent: 0px; text-transform: none; widows: 2; word-spacing: 0px; -webkit-text-stroke-width: 0px; white-space: nowrap; background-color: rgb(251, 251, 251); text-decoration-thickness: initial; text-decoration-style: initial; text-decoration-color: initial; float: none; display: inline !important;&quot;&gt;list&amp;lt;selections&amp;gt;, message)&lt;/span&gt;&lt;/div&gt;" style="text;whiteSpace=wrap;html=1;" parent="o3OBOqzrow_LPvAAEJiq-1" vertex="1">
          <mxGeometry x="810" y="710" width="123" height="40" as="geometry" />
        </mxCell>
        <mxCell id="o3OBOqzrow_LPvAAEJiq-47" value="transmitInvMsg(email)" style="html=1;verticalAlign=bottom;endArrow=block;labelBackgroundColor=none;fontFamily=Verdana;fontSize=12;edgeStyle=elbowEdgeStyle;elbow=vertical;entryX=-0.092;entryY=0.136;entryDx=0;entryDy=0;entryPerimeter=0;" parent="o3OBOqzrow_LPvAAEJiq-1" target="o3OBOqzrow_LPvAAEJiq-31" edge="1">
          <mxGeometry x="-0.0318" relative="1" as="geometry">
            <mxPoint x="730" y="770" as="sourcePoint" />
            <mxPoint x="1166" y="769" as="targetPoint" />
            <mxPoint as="offset" />
          </mxGeometry>
        </mxCell>
        <mxCell id="o3OBOqzrow_LPvAAEJiq-48" value="confirmation" style="html=1;verticalAlign=bottom;endArrow=none;labelBackgroundColor=none;fontFamily=Verdana;fontSize=12;edgeStyle=elbowEdgeStyle;elbow=horizontal;startArrow=block;startFill=0;dashed=1;exitX=0.95;exitY=0.863;exitDx=0;exitDy=0;exitPerimeter=0;" parent="o3OBOqzrow_LPvAAEJiq-1" edge="1">
          <mxGeometry x="-0.002" relative="1" as="geometry">
            <mxPoint x="732.5" y="790.6999999999998" as="sourcePoint" />
            <mxPoint x="1000" y="790" as="targetPoint" />
            <mxPoint as="offset" />
          </mxGeometry>
        </mxCell>
        <mxCell id="o3OBOqzrow_LPvAAEJiq-49" value="" style="html=1;points=[];perimeter=orthogonalPerimeter;rounded=0;shadow=0;comic=0;labelBackgroundColor=none;strokeWidth=1;fontFamily=Verdana;fontSize=12;align=center;" parent="o3OBOqzrow_LPvAAEJiq-1" vertex="1">
          <mxGeometry x="722.5" y="586" width="10" height="61" as="geometry" />
        </mxCell>
        <mxCell id="o3OBOqzrow_LPvAAEJiq-50" value="confirmation" style="html=1;verticalAlign=bottom;endArrow=none;labelBackgroundColor=none;fontFamily=Verdana;fontSize=12;edgeStyle=elbowEdgeStyle;elbow=horizontal;startArrow=block;startFill=0;dashed=1;exitX=1.2;exitY=0.947;exitDx=0;exitDy=0;exitPerimeter=0;" parent="o3OBOqzrow_LPvAAEJiq-1" edge="1">
          <mxGeometry x="-0.0354" y="1" relative="1" as="geometry">
            <mxPoint x="505.5" y="810.55" as="sourcePoint" />
            <mxPoint x="720" y="810" as="targetPoint" />
            <mxPoint as="offset" />
          </mxGeometry>
        </mxCell>
        <mxCell id="Kg8alnK852BiXVhsEXMQ-1" value="" style="edgeStyle=segmentEdgeStyle;endArrow=blockThin;html=1;curved=0;rounded=0;endSize=8;startSize=8;sourcePerimeterSpacing=0;targetPerimeterSpacing=0;endFill=0;" parent="o3OBOqzrow_LPvAAEJiq-1" edge="1">
          <mxGeometry width="100" relative="1" as="geometry">
            <mxPoint x="505" y="533" as="sourcePoint" />
            <mxPoint x="505" y="543" as="targetPoint" />
            <Array as="points">
              <mxPoint x="575" y="533" />
            </Array>
          </mxGeometry>
        </mxCell>
        <mxCell id="Kg8alnK852BiXVhsEXMQ-2" value="&lt;div style=&quot;text-align: center;&quot;&gt;&lt;span style=&quot;background-color: transparent; color: light-dark(rgb(0, 0, 0), rgb(255, 255, 255)); text-wrap: nowrap;&quot;&gt;&lt;font face=&quot;Verdana&quot;&gt;6. sendInvoicesOption: =&lt;/font&gt;&lt;/span&gt;&lt;/div&gt;&lt;div style=&quot;text-align: center;&quot;&gt;&lt;font face=&quot;Verdana&quot;&gt;&lt;span style=&quot;text-wrap: nowrap;&quot;&gt;selection&lt;/span&gt;&lt;/font&gt;&lt;/div&gt;" style="text;whiteSpace=wrap;html=1;" parent="o3OBOqzrow_LPvAAEJiq-1" vertex="1">
          <mxGeometry x="550" y="505" width="140" height="40" as="geometry" />
        </mxCell>
        <mxCell id="Kg8alnK852BiXVhsEXMQ-3" value="&lt;div&gt;&lt;br&gt;&lt;/div&gt;&lt;div&gt;&lt;br&gt;&lt;/div&gt;&lt;div&gt;&lt;br&gt;&lt;/div&gt;&lt;div&gt;&lt;span style=&quot;background-color: transparent; color: light-dark(rgb(0, 0, 0), rgb(255, 255, 255));&quot;&gt;&amp;nbsp; &amp;nbsp; &amp;nbsp;* [repeat for each field]&lt;/span&gt;&lt;br&gt;&lt;/div&gt;" style="rounded=0;whiteSpace=wrap;html=1;fillColor=none;" parent="o3OBOqzrow_LPvAAEJiq-1" vertex="1">
          <mxGeometry x="470" y="510" width="270" height="70" as="geometry" />
        </mxCell>
        <mxCell id="Kg8alnK852BiXVhsEXMQ-4" value="finalizeInvoices&lt;div&gt;(message)&lt;/div&gt;" style="html=1;verticalAlign=bottom;endArrow=block;labelBackgroundColor=none;fontFamily=Verdana;fontSize=12;edgeStyle=elbowEdgeStyle;elbow=vertical;" parent="o3OBOqzrow_LPvAAEJiq-1" edge="1">
          <mxGeometry x="-0.0233" y="1" relative="1" as="geometry">
            <mxPoint x="505" y="725" as="sourcePoint" />
            <mxPoint x="720" y="725" as="targetPoint" />
            <mxPoint as="offset" />
          </mxGeometry>
        </mxCell>
        <mxCell id="Kg8alnK852BiXVhsEXMQ-5" value="" style="edgeStyle=segmentEdgeStyle;endArrow=blockThin;html=1;curved=0;rounded=0;endSize=8;startSize=8;sourcePerimeterSpacing=0;targetPerimeterSpacing=0;endFill=0;" parent="o3OBOqzrow_LPvAAEJiq-1" edge="1">
          <mxGeometry width="100" relative="1" as="geometry">
            <mxPoint x="732.5" y="733" as="sourcePoint" />
            <mxPoint x="732.5" y="743" as="targetPoint" />
            <Array as="points">
              <mxPoint x="802.5" y="733" />
            </Array>
          </mxGeometry>
        </mxCell>
        <mxCell id="Ri_AlaLIGYgglXsnIh3H-0" value="" style="edgeStyle=segmentEdgeStyle;endArrow=blockThin;html=1;curved=0;rounded=0;endSize=8;startSize=8;sourcePerimeterSpacing=0;targetPerimeterSpacing=0;endFill=0;" parent="o3OBOqzrow_LPvAAEJiq-1" edge="1">
          <mxGeometry width="100" relative="1" as="geometry">
            <mxPoint x="732.5" y="426" as="sourcePoint" />
            <mxPoint x="732.5" y="436" as="targetPoint" />
            <Array as="points">
              <mxPoint x="802.5" y="426" />
            </Array>
          </mxGeometry>
        </mxCell>
        <mxCell id="Ri_AlaLIGYgglXsnIh3H-1" value="&lt;span style=&quot;font-family: Verdana; font-size: 12px; background-color: rgb(251, 251, 251);&quot;&gt;5. generateInvoices(data)&lt;/span&gt;" style="edgeLabel;html=1;align=center;verticalAlign=middle;resizable=0;points=[];" parent="Ri_AlaLIGYgglXsnIh3H-0" vertex="1" connectable="0">
          <mxGeometry x="-0.5624" y="1" relative="1" as="geometry">
            <mxPoint x="50" y="-10" as="offset" />
          </mxGeometry>
        </mxCell>
        <mxCell id="4Ekpk2sl8CpgXhgqI4Bn-0" value="&lt;p class=&quot;MsoNormal&quot;&gt;&lt;span style=&quot;font-size: 10px;&quot;&gt;7. System displays option screen allowing Billing Analyst to customize email&lt;/span&gt;&lt;/p&gt;" style="text;whiteSpace=wrap;html=1;" parent="o3OBOqzrow_LPvAAEJiq-1" vertex="1">
          <mxGeometry x="251" y="580" width="200" height="50" as="geometry" />
        </mxCell>
        <mxCell id="4Ekpk2sl8CpgXhgqI4Bn-1" value="&lt;p class=&quot;MsoNormal&quot;&gt;&lt;span style=&quot;font-size: 10px; background-color: transparent; color: light-dark(rgb(0, 0, 0), rgb(255, 255, 255));&quot;&gt;8. Billing Analyst customizes and clicks ‘Send’&lt;/span&gt;&lt;/p&gt;&lt;p class=&quot;MsoNormal&quot;&gt;&lt;font style=&quot;font-size: 10px; color: rgb(0, 0, 0);&quot; face=&quot;Helvetica&quot;&gt;&lt;br class=&quot;Apple-interchange-newline&quot;&gt;&lt;br&gt;&lt;/font&gt;&lt;/p&gt;" style="text;whiteSpace=wrap;html=1;" parent="o3OBOqzrow_LPvAAEJiq-1" vertex="1">
          <mxGeometry x="253" y="642" width="200" height="50" as="geometry" />
        </mxCell>
        <mxCell id="4Ekpk2sl8CpgXhgqI4Bn-2" value="&lt;p class=&quot;MsoNormal&quot;&gt;&lt;span style=&quot;font-size: 10px;&quot;&gt;9. System sends relevant information (i.e. email address, messages, invoices) to external&amp;nbsp;&lt;/span&gt;&lt;span style=&quot;font-size: 10px;&quot;&gt;Email System and email system sends email&lt;/span&gt;&lt;/p&gt;" style="text;whiteSpace=wrap;html=1;" parent="o3OBOqzrow_LPvAAEJiq-1" vertex="1">
          <mxGeometry x="253" y="711" width="200" height="50" as="geometry" />
        </mxCell>
        <mxCell id="o3OBOqzrow_LPvAAEJiq-2" value="&lt;div&gt;&lt;br&gt;&lt;/div&gt;&lt;div&gt;&lt;br&gt;&lt;/div&gt;&lt;div&gt;&lt;br&gt;&lt;/div&gt;&lt;div&gt;&lt;br&gt;&lt;/div&gt;&lt;div&gt;&lt;br&gt;&lt;/div&gt;&lt;div&gt;&lt;br&gt;&lt;/div&gt;&lt;div&gt;&lt;br&gt;&lt;/div&gt;&lt;div&gt;&lt;br&gt;&lt;/div&gt;&lt;div&gt;&lt;br&gt;&lt;/div&gt;&lt;div&gt;&lt;br&gt;&lt;/div&gt;&lt;div&gt;&lt;br&gt;&lt;/div&gt;&lt;div&gt;&lt;br&gt;&lt;/div&gt;&lt;div&gt;&lt;br&gt;&lt;/div&gt;&lt;div&gt;&lt;br&gt;&lt;/div&gt;&lt;div&gt;&lt;br&gt;&lt;/div&gt;&lt;div&gt;&lt;br&gt;&lt;/div&gt;&lt;div&gt;&lt;br&gt;&lt;/div&gt;&lt;div&gt;&lt;br&gt;&lt;/div&gt;&lt;div&gt;&lt;br&gt;&lt;/div&gt;&lt;div&gt;&lt;br&gt;&lt;/div&gt;&lt;div&gt;&lt;br&gt;&lt;/div&gt;&lt;div&gt;&lt;span style=&quot;background-color: transparent; color: light-dark(rgb(0, 0, 0), rgb(255, 255, 255));&quot;&gt;* [repeat after corrections]&lt;/span&gt;&lt;br&gt;&lt;/div&gt;" style="rounded=0;whiteSpace=wrap;html=1;fillColor=none;" parent="o3OBOqzrow_LPvAAEJiq-1" vertex="1">
          <mxGeometry x="240" y="170" width="730" height="320" as="geometry" />
        </mxCell>
      </root>
    </mxGraphModel>
  </diagram>
  <diagram name="Analyze Portfolio Metrics" id="OUHNsSooYXWRUuBIrzbw">
    <mxGraphModel dx="1728" dy="1037" grid="1" gridSize="10" guides="1" tooltips="1" connect="1" arrows="1" fold="1" page="1" pageScale="1" pageWidth="1100" pageHeight="850" background="none" math="0" shadow="0">
      <root>
        <mxCell id="EquBRPVDK-3WynH7pEUU-0" />
        <mxCell id="EquBRPVDK-3WynH7pEUU-1" parent="EquBRPVDK-3WynH7pEUU-0" />
        <mxCell id="EquBRPVDK-3WynH7pEUU-2" value=": Credit Officer" style="shape=umlActor;verticalLabelPosition=bottom;verticalAlign=top;html=1;outlineConnect=0;" parent="EquBRPVDK-3WynH7pEUU-1" vertex="1">
          <mxGeometry x="485" y="50" width="30" height="60" as="geometry" />
        </mxCell>
        <mxCell id="EquBRPVDK-3WynH7pEUU-3" value="" style="endArrow=none;dashed=1;html=1;rounded=0;" parent="EquBRPVDK-3WynH7pEUU-1" edge="1">
          <mxGeometry width="50" height="50" relative="1" as="geometry">
            <mxPoint x="500" y="830" as="sourcePoint" />
            <mxPoint x="500" y="140" as="targetPoint" />
          </mxGeometry>
        </mxCell>
        <mxCell id="EquBRPVDK-3WynH7pEUU-4" value=": System" style="rounded=0;whiteSpace=wrap;html=1;" parent="EquBRPVDK-3WynH7pEUU-1" vertex="1">
          <mxGeometry x="690" y="110" width="75" height="30" as="geometry" />
        </mxCell>
        <mxCell id="EquBRPVDK-3WynH7pEUU-5" value="&lt;span style=&quot;font-size: 10px;&quot;&gt;1. Credit&amp;nbsp;&lt;/span&gt;&lt;span style=&quot;font-size: 10px;&quot;&gt;Officer selects ‘Reporting’ Dashboard menu&lt;/span&gt;" style="text;whiteSpace=wrap;html=1;" parent="EquBRPVDK-3WynH7pEUU-1" vertex="1">
          <mxGeometry x="251" y="172" width="200" height="40" as="geometry" />
        </mxCell>
        <mxCell id="EquBRPVDK-3WynH7pEUU-6" value="&lt;p style=&quot;margin-bottom: 0in; line-height: normal;&quot; class=&quot;MsoNormal&quot;&gt;&lt;font style=&quot;font-size: 10px;&quot; face=&quot;Helvetica&quot;&gt;3. Credit Officer makes relevant selections and selects &#39;update dashboard&#39;&lt;/font&gt;&lt;/p&gt;" style="text;whiteSpace=wrap;html=1;" parent="EquBRPVDK-3WynH7pEUU-1" vertex="1">
          <mxGeometry x="252" y="250" width="200" height="50" as="geometry" />
        </mxCell>
        <mxCell id="EquBRPVDK-3WynH7pEUU-7" value="&lt;p class=&quot;MsoNormal&quot;&gt;&lt;font style=&quot;forced-color-adjust: none; color: rgb(0, 0, 0); font-family: Helvetica; font-style: normal; font-variant-ligatures: normal; font-variant-caps: normal; font-weight: 400; letter-spacing: normal; orphans: 2; text-align: left; text-indent: 0px; text-transform: none; widows: 2; word-spacing: 0px; -webkit-text-stroke-width: 0px; white-space: normal; background-color: rgb(251, 251, 251); text-decoration-thickness: initial; text-decoration-style: initial; text-decoration-color: initial; font-size: 10px;&quot; face=&quot;Helvetica&quot;&gt;&lt;/font&gt;&lt;/p&gt;&lt;p style=&quot;forced-color-adjust: none; color: rgb(0, 0, 0); font-style: normal; font-variant-ligatures: normal; font-variant-caps: normal; font-weight: 400; letter-spacing: normal; orphans: 2; text-align: left; text-indent: 0px; text-transform: none; widows: 2; word-spacing: 0px; -webkit-text-stroke-width: 0px; white-space: normal; text-decoration-thickness: initial; text-decoration-style: initial; text-decoration-color: initial; margin-bottom: 0in; line-height: normal;&quot; class=&quot;MsoNormal&quot;&gt;&lt;span style=&quot;line-height: 107%;&quot;&gt;&lt;font style=&quot;font-size: 10px;&quot;&gt;4. System processes and generates dashboard data&lt;/font&gt;&lt;/span&gt;&lt;br&gt;&lt;/p&gt;" style="text;whiteSpace=wrap;html=1;" parent="EquBRPVDK-3WynH7pEUU-1" vertex="1">
          <mxGeometry x="252" y="320" width="200" height="50" as="geometry" />
        </mxCell>
        <mxCell id="EquBRPVDK-3WynH7pEUU-8" value="&lt;p style=&quot;margin-bottom: 0in; line-height: normal;&quot; class=&quot;MsoNormal&quot;&gt;&lt;span style=&quot;font-size: 10px;&quot;&gt;6. Credit officer writes commentary.&lt;/span&gt;&lt;br&gt;&lt;/p&gt;" style="text;whiteSpace=wrap;html=1;" parent="EquBRPVDK-3WynH7pEUU-1" vertex="1">
          <mxGeometry x="252" y="478" width="200" height="50" as="geometry" />
        </mxCell>
        <mxCell id="EquBRPVDK-3WynH7pEUU-9" value="&lt;p class=&quot;MsoNormal&quot;&gt;&lt;font face=&quot;Helvetica&quot; style=&quot;font-size: 10px;&quot;&gt;8. System saves data and generates emails.&lt;/font&gt;&lt;/p&gt;" style="text;whiteSpace=wrap;html=1;" parent="EquBRPVDK-3WynH7pEUU-1" vertex="1">
          <mxGeometry x="251" y="640" width="200" height="50" as="geometry" />
        </mxCell>
        <mxCell id="EquBRPVDK-3WynH7pEUU-10" value="" style="html=1;points=[];perimeter=orthogonalPerimeter;rounded=0;shadow=0;comic=0;labelBackgroundColor=none;strokeWidth=1;fontFamily=Verdana;fontSize=12;align=center;" parent="EquBRPVDK-3WynH7pEUU-1" vertex="1">
          <mxGeometry x="495" y="170" width="10" height="650" as="geometry" />
        </mxCell>
        <mxCell id="EquBRPVDK-3WynH7pEUU-11" value="2. reporting dashboard" style="html=1;verticalAlign=bottom;endArrow=none;labelBackgroundColor=none;fontFamily=Verdana;fontSize=12;edgeStyle=elbowEdgeStyle;elbow=vertical;startArrow=block;startFill=0;dashed=1;" parent="EquBRPVDK-3WynH7pEUU-1" edge="1">
          <mxGeometry relative="1" as="geometry">
            <mxPoint x="505" y="244" as="sourcePoint" />
            <mxPoint x="720" y="244" as="targetPoint" />
            <mxPoint as="offset" />
          </mxGeometry>
        </mxCell>
        <mxCell id="EquBRPVDK-3WynH7pEUU-12" value="1. selectReporting()" style="html=1;verticalAlign=bottom;endArrow=block;labelBackgroundColor=none;fontFamily=Verdana;fontSize=12;edgeStyle=elbowEdgeStyle;elbow=vertical;" parent="EquBRPVDK-3WynH7pEUU-1" edge="1">
          <mxGeometry x="-0.0007" relative="1" as="geometry">
            <mxPoint x="507.5" y="193.56" as="sourcePoint" />
            <mxPoint x="722.5" y="193.56" as="targetPoint" />
            <mxPoint as="offset" />
          </mxGeometry>
        </mxCell>
        <mxCell id="EquBRPVDK-3WynH7pEUU-13" value="" style="endArrow=none;dashed=1;html=1;rounded=0;entryX=0.5;entryY=1;entryDx=0;entryDy=0;" parent="EquBRPVDK-3WynH7pEUU-1" source="EquBRPVDK-3WynH7pEUU-24" target="EquBRPVDK-3WynH7pEUU-4" edge="1">
          <mxGeometry width="50" height="50" relative="1" as="geometry">
            <mxPoint x="728" y="600" as="sourcePoint" />
            <mxPoint x="727.5" y="314" as="targetPoint" />
          </mxGeometry>
        </mxCell>
        <mxCell id="EquBRPVDK-3WynH7pEUU-14" value="&lt;span style=&quot;font-size: 10px;&quot;&gt;&lt;u&gt;Analyze Portfolio Metrics&lt;/u&gt;&lt;/span&gt;" style="text;whiteSpace=wrap;html=1;" parent="EquBRPVDK-3WynH7pEUU-1" vertex="1">
          <mxGeometry x="276" y="130" width="152" height="50" as="geometry" />
        </mxCell>
        <mxCell id="EquBRPVDK-3WynH7pEUU-15" value="&lt;p class=&quot;MsoNormal&quot;&gt;&lt;font style=&quot;forced-color-adjust: none; color: rgb(0, 0, 0); font-family: Helvetica; font-style: normal; font-variant-ligatures: normal; font-variant-caps: normal; font-weight: 400; letter-spacing: normal; orphans: 2; text-align: left; text-indent: 0px; text-transform: none; widows: 2; word-spacing: 0px; -webkit-text-stroke-width: 0px; white-space: normal; background-color: rgb(251, 251, 251); text-decoration-thickness: initial; text-decoration-style: initial; text-decoration-color: initial; font-size: 10px;&quot; face=&quot;Helvetica&quot;&gt;&lt;/font&gt;&lt;/p&gt;&lt;p style=&quot;forced-color-adjust: none; color: rgb(0, 0, 0); font-family: Helvetica; font-size: 12px; font-style: normal; font-variant-ligatures: normal; font-variant-caps: normal; font-weight: 400; letter-spacing: normal; orphans: 2; text-align: left; text-indent: 0px; text-transform: none; widows: 2; word-spacing: 0px; -webkit-text-stroke-width: 0px; white-space: normal; background-color: rgb(251, 251, 251); text-decoration-thickness: initial; text-decoration-style: initial; text-decoration-color: initial; margin-bottom: 0in; line-height: normal;&quot; class=&quot;MsoNormal&quot;&gt;&lt;font style=&quot;forced-color-adjust: none; color: rgb(0, 0, 0); font-family: Helvetica; font-style: normal; font-variant-ligatures: normal; font-variant-caps: normal; font-weight: 400; letter-spacing: normal; orphans: 2; text-align: left; text-indent: 0px; text-transform: none; widows: 2; word-spacing: 0px; -webkit-text-stroke-width: 0px; white-space: normal; background-color: rgb(251, 251, 251); text-decoration-thickness: initial; text-decoration-style: initial; text-decoration-color: initial; font-size: 10px;&quot; face=&quot;Helvetica&quot;&gt;&lt;/font&gt;&lt;/p&gt;&lt;p style=&quot;forced-color-adjust: none; color: rgb(0, 0, 0); font-family: Helvetica; font-size: 12px; font-style: normal; font-variant-ligatures: normal; font-variant-caps: normal; font-weight: 400; letter-spacing: normal; orphans: 2; text-align: left; text-indent: 0px; text-transform: none; widows: 2; word-spacing: 0px; -webkit-text-stroke-width: 0px; white-space: normal; background-color: rgb(251, 251, 251); text-decoration-thickness: initial; text-decoration-style: initial; text-decoration-color: initial; margin-bottom: 0in; line-height: normal;&quot; class=&quot;MsoNormal&quot;&gt;&lt;span style=&quot;font-size: 10px;&quot;&gt;2. System&amp;nbsp;displays ‘Reporting Dashboard&#39;&amp;nbsp; dashboard options and sends to front-end&lt;/span&gt;&lt;br&gt;&lt;/p&gt;" style="text;whiteSpace=wrap;html=1;" parent="EquBRPVDK-3WynH7pEUU-1" vertex="1">
          <mxGeometry x="252" y="197" width="200" height="50" as="geometry" />
        </mxCell>
        <mxCell id="EquBRPVDK-3WynH7pEUU-16" value="&lt;span style=&quot;color: rgb(0, 0, 0); font-family: Verdana; font-size: 12px; font-style: normal; font-variant-ligatures: normal; font-variant-caps: normal; font-weight: 400; letter-spacing: normal; orphans: 2; text-align: center; text-indent: 0px; text-transform: none; widows: 2; word-spacing: 0px; -webkit-text-stroke-width: 0px; white-space: nowrap; background-color: rgb(251, 251, 251); text-decoration-thickness: initial; text-decoration-style: initial; text-decoration-color: initial; float: none; display: inline !important;&quot;&gt;3. dashboardField: = selection&lt;/span&gt;" style="text;whiteSpace=wrap;html=1;" parent="EquBRPVDK-3WynH7pEUU-1" vertex="1">
          <mxGeometry x="532" y="267" width="140" height="40" as="geometry" />
        </mxCell>
        <mxCell id="EquBRPVDK-3WynH7pEUU-17" value="" style="html=1;points=[];perimeter=orthogonalPerimeter;rounded=0;shadow=0;comic=0;labelBackgroundColor=none;strokeWidth=1;fontFamily=Verdana;fontSize=12;align=center;" parent="EquBRPVDK-3WynH7pEUU-1" vertex="1">
          <mxGeometry x="722.5" y="190" width="10" height="60" as="geometry" />
        </mxCell>
        <mxCell id="EquBRPVDK-3WynH7pEUU-21" value="&lt;p class=&quot;MsoNormal&quot;&gt;&lt;font style=&quot;forced-color-adjust: none; color: rgb(0, 0, 0); font-family: Helvetica; font-style: normal; font-variant-ligatures: normal; font-variant-caps: normal; font-weight: 400; letter-spacing: normal; orphans: 2; text-align: left; text-indent: 0px; text-transform: none; widows: 2; word-spacing: 0px; -webkit-text-stroke-width: 0px; white-space: normal; background-color: rgb(251, 251, 251); text-decoration-thickness: initial; text-decoration-style: initial; text-decoration-color: initial; font-size: 10px;&quot;&gt;&lt;/font&gt;&lt;/p&gt;&lt;p style=&quot;forced-color-adjust: none; color: rgb(0, 0, 0); font-style: normal; font-variant-ligatures: normal; font-variant-caps: normal; font-weight: 400; letter-spacing: normal; orphans: 2; text-align: left; text-indent: 0px; text-transform: none; widows: 2; word-spacing: 0px; -webkit-text-stroke-width: 0px; white-space: normal; text-decoration-thickness: initial; text-decoration-style: initial; text-decoration-color: initial; margin-bottom: 0in; line-height: normal;&quot; class=&quot;MsoNormal&quot;&gt;&lt;span style=&quot;line-height: 107%;&quot;&gt;&lt;font face=&quot;Helvetica&quot; style=&quot;font-size: 10px;&quot;&gt;9.System sends email via Email System along with relevant commentary to selected users.&lt;/font&gt;&lt;/span&gt;&lt;br&gt;&lt;/p&gt;" style="text;whiteSpace=wrap;html=1;" parent="EquBRPVDK-3WynH7pEUU-1" vertex="1">
          <mxGeometry x="251" y="706" width="200" height="50" as="geometry" />
        </mxCell>
        <mxCell id="EquBRPVDK-3WynH7pEUU-22" value="&lt;div&gt;&lt;br&gt;&lt;/div&gt;&lt;div&gt;&lt;br&gt;&lt;/div&gt;&lt;div&gt;&lt;span style=&quot;background-color: transparent; color: light-dark(rgb(0, 0, 0), rgb(255, 255, 255));&quot;&gt;* [repeat for each field]&lt;/span&gt;&lt;br&gt;&lt;/div&gt;" style="rounded=0;whiteSpace=wrap;html=1;fillColor=none;" parent="EquBRPVDK-3WynH7pEUU-1" vertex="1">
          <mxGeometry x="485" y="270" width="255" height="43" as="geometry" />
        </mxCell>
        <mxCell id="EquBRPVDK-3WynH7pEUU-23" value="" style="endArrow=none;dashed=1;html=1;rounded=0;entryX=0.5;entryY=1;entryDx=0;entryDy=0;" parent="EquBRPVDK-3WynH7pEUU-1" target="EquBRPVDK-3WynH7pEUU-24" edge="1">
          <mxGeometry width="50" height="50" relative="1" as="geometry">
            <mxPoint x="728" y="830" as="sourcePoint" />
            <mxPoint x="728" y="140" as="targetPoint" />
          </mxGeometry>
        </mxCell>
        <mxCell id="EquBRPVDK-3WynH7pEUU-24" value="" style="html=1;points=[];perimeter=orthogonalPerimeter;rounded=0;shadow=0;comic=0;labelBackgroundColor=none;strokeWidth=1;fontFamily=Verdana;fontSize=12;align=center;" parent="EquBRPVDK-3WynH7pEUU-1" vertex="1">
          <mxGeometry x="722.5" y="337.5" width="10" height="82.5" as="geometry" />
        </mxCell>
        <mxCell id="EquBRPVDK-3WynH7pEUU-25" value="updateDashboard(list&amp;lt;selections&amp;gt;)" style="html=1;verticalAlign=bottom;endArrow=block;labelBackgroundColor=none;fontFamily=Verdana;fontSize=12;edgeStyle=elbowEdgeStyle;elbow=horizontal;" parent="EquBRPVDK-3WynH7pEUU-1" edge="1">
          <mxGeometry x="0.0078" relative="1" as="geometry">
            <mxPoint x="505" y="346.18" as="sourcePoint" />
            <mxPoint x="720" y="346.18" as="targetPoint" />
            <mxPoint as="offset" />
          </mxGeometry>
        </mxCell>
        <mxCell id="EquBRPVDK-3WynH7pEUU-27" value=": Reporting&lt;div&gt;System&lt;/div&gt;" style="rounded=0;whiteSpace=wrap;html=1;" parent="EquBRPVDK-3WynH7pEUU-1" vertex="1">
          <mxGeometry x="1081" y="110" width="70" height="30" as="geometry" />
        </mxCell>
        <mxCell id="EquBRPVDK-3WynH7pEUU-28" value="" style="endArrow=none;dashed=1;html=1;rounded=0;entryX=0.5;entryY=1;entryDx=0;entryDy=0;" parent="EquBRPVDK-3WynH7pEUU-1" source="34hDA2sNUGLxZMIC2jdi-4" edge="1">
          <mxGeometry width="50" height="50" relative="1" as="geometry">
            <mxPoint x="1116" y="600" as="sourcePoint" />
            <mxPoint x="1117" y="140" as="targetPoint" />
          </mxGeometry>
        </mxCell>
        <mxCell id="EquBRPVDK-3WynH7pEUU-29" value="" style="endArrow=none;dashed=1;html=1;rounded=0;entryX=0.5;entryY=1;entryDx=0;entryDy=0;" parent="EquBRPVDK-3WynH7pEUU-1" target="EquBRPVDK-3WynH7pEUU-30" edge="1">
          <mxGeometry width="50" height="50" relative="1" as="geometry">
            <mxPoint x="1117" y="830" as="sourcePoint" />
            <mxPoint x="1117" y="295" as="targetPoint" />
          </mxGeometry>
        </mxCell>
        <mxCell id="EquBRPVDK-3WynH7pEUU-30" value="" style="html=1;points=[];perimeter=orthogonalPerimeter;rounded=0;shadow=0;comic=0;labelBackgroundColor=none;strokeWidth=1;fontFamily=Verdana;fontSize=12;align=center;" parent="EquBRPVDK-3WynH7pEUU-1" vertex="1">
          <mxGeometry x="1112" y="718" width="10" height="55" as="geometry" />
        </mxCell>
        <mxCell id="EquBRPVDK-3WynH7pEUU-33" value="" style="edgeStyle=segmentEdgeStyle;endArrow=blockThin;html=1;curved=0;rounded=0;endSize=8;startSize=8;sourcePerimeterSpacing=0;targetPerimeterSpacing=0;endFill=0;" parent="EquBRPVDK-3WynH7pEUU-1" edge="1">
          <mxGeometry width="100" relative="1" as="geometry">
            <mxPoint x="505" y="288.97" as="sourcePoint" />
            <mxPoint x="505" y="298.97" as="targetPoint" />
            <Array as="points">
              <mxPoint x="575" y="288.97" />
            </Array>
          </mxGeometry>
        </mxCell>
        <mxCell id="EquBRPVDK-3WynH7pEUU-37" value="lookupUser(name)" style="html=1;verticalAlign=bottom;endArrow=block;labelBackgroundColor=none;fontFamily=Verdana;fontSize=12;edgeStyle=elbowEdgeStyle;elbow=vertical;" parent="EquBRPVDK-3WynH7pEUU-1" edge="1">
          <mxGeometry x="-0.0279" y="1" relative="1" as="geometry">
            <mxPoint x="507.5" y="553.21" as="sourcePoint" />
            <mxPoint x="722.5" y="553.21" as="targetPoint" />
            <mxPoint as="offset" />
          </mxGeometry>
        </mxCell>
        <mxCell id="EquBRPVDK-3WynH7pEUU-44" value="9. transmitEmail(message)" style="html=1;verticalAlign=bottom;endArrow=block;labelBackgroundColor=none;fontFamily=Verdana;fontSize=12;edgeStyle=elbowEdgeStyle;elbow=vertical;entryX=-0.2;entryY=0.273;entryDx=0;entryDy=0;entryPerimeter=0;" parent="EquBRPVDK-3WynH7pEUU-1" target="EquBRPVDK-3WynH7pEUU-30" edge="1">
          <mxGeometry x="-0.5235" y="1" relative="1" as="geometry">
            <mxPoint x="730" y="735" as="sourcePoint" />
            <mxPoint x="1169.0799999999995" y="733.4800000000002" as="targetPoint" />
            <mxPoint as="offset" />
          </mxGeometry>
        </mxCell>
        <mxCell id="EquBRPVDK-3WynH7pEUU-45" value="confirmation" style="html=1;verticalAlign=bottom;endArrow=none;labelBackgroundColor=none;fontFamily=Verdana;fontSize=12;edgeStyle=elbowEdgeStyle;elbow=horizontal;startArrow=block;startFill=0;dashed=1;exitX=0.95;exitY=0.863;exitDx=0;exitDy=0;exitPerimeter=0;" parent="EquBRPVDK-3WynH7pEUU-1" edge="1">
          <mxGeometry x="-0.5373" y="1" relative="1" as="geometry">
            <mxPoint x="732.5" y="760.6999999999998" as="sourcePoint" />
            <mxPoint x="1110" y="760" as="targetPoint" />
            <mxPoint x="1" as="offset" />
          </mxGeometry>
        </mxCell>
        <mxCell id="EquBRPVDK-3WynH7pEUU-47" value="confirmation" style="html=1;verticalAlign=bottom;endArrow=none;labelBackgroundColor=none;fontFamily=Verdana;fontSize=12;edgeStyle=elbowEdgeStyle;elbow=horizontal;startArrow=block;startFill=0;dashed=1;exitX=1.2;exitY=0.947;exitDx=0;exitDy=0;exitPerimeter=0;" parent="EquBRPVDK-3WynH7pEUU-1" edge="1">
          <mxGeometry x="-0.0354" y="1" relative="1" as="geometry">
            <mxPoint x="505" y="781.55" as="sourcePoint" />
            <mxPoint x="719.5" y="781" as="targetPoint" />
            <mxPoint as="offset" />
          </mxGeometry>
        </mxCell>
        <mxCell id="EquBRPVDK-3WynH7pEUU-48" value="" style="edgeStyle=segmentEdgeStyle;endArrow=blockThin;html=1;curved=0;rounded=0;endSize=8;startSize=8;sourcePerimeterSpacing=0;targetPerimeterSpacing=0;endFill=0;" parent="EquBRPVDK-3WynH7pEUU-1" edge="1">
          <mxGeometry width="100" relative="1" as="geometry">
            <mxPoint x="505" y="500" as="sourcePoint" />
            <mxPoint x="505" y="510" as="targetPoint" />
            <Array as="points">
              <mxPoint x="575" y="500" />
            </Array>
          </mxGeometry>
        </mxCell>
        <mxCell id="EquBRPVDK-3WynH7pEUU-49" value="&lt;div style=&quot;text-align: center;&quot;&gt;&lt;font face=&quot;Verdana&quot;&gt;&lt;span style=&quot;text-wrap: nowrap;&quot;&gt;6. reportCommentary: =&lt;/span&gt;&lt;/font&gt;&lt;/div&gt;&lt;div style=&quot;text-align: center;&quot;&gt;&lt;font face=&quot;Verdana&quot;&gt;&lt;span style=&quot;text-wrap: nowrap;&quot;&gt;commentary&lt;/span&gt;&lt;/font&gt;&lt;/div&gt;" style="text;whiteSpace=wrap;html=1;" parent="EquBRPVDK-3WynH7pEUU-1" vertex="1">
          <mxGeometry x="550" y="478" width="140" height="40" as="geometry" />
        </mxCell>
        <mxCell id="2ODXB2LE_u-hMNIpxes2-1" value="" style="html=1;points=[];perimeter=orthogonalPerimeter;rounded=0;shadow=0;comic=0;labelBackgroundColor=none;strokeWidth=1;fontFamily=Verdana;fontSize=12;align=center;" parent="EquBRPVDK-3WynH7pEUU-1" vertex="1">
          <mxGeometry x="722.5" y="540" width="10" height="50" as="geometry" />
        </mxCell>
        <mxCell id="2ODXB2LE_u-hMNIpxes2-3" value="&lt;p style=&quot;margin-bottom: 0in; line-height: normal;&quot; class=&quot;MsoNormal&quot;&gt;&lt;span style=&quot;font-size: 10px;&quot;&gt;7.&amp;nbsp;&lt;/span&gt;&lt;span style=&quot;font-family: Aptos, sans-serif; background-color: transparent; color: light-dark(rgb(0, 0, 0), rgb(255, 255, 255));&quot;&gt;&lt;font style=&quot;font-size: 10px;&quot;&gt;Credit officer selects related users (i.e. Treasury analyst for payment related&lt;br&gt;commentary) and saves commentary.&lt;/font&gt;&lt;/span&gt;&lt;br&gt;&lt;/p&gt;" style="text;whiteSpace=wrap;html=1;" parent="EquBRPVDK-3WynH7pEUU-1" vertex="1">
          <mxGeometry x="252" y="528" width="200" height="50" as="geometry" />
        </mxCell>
        <mxCell id="2ODXB2LE_u-hMNIpxes2-4" value="user list" style="html=1;verticalAlign=bottom;endArrow=none;labelBackgroundColor=none;fontFamily=Verdana;fontSize=12;edgeStyle=elbowEdgeStyle;elbow=vertical;startArrow=block;startFill=0;dashed=1;exitX=0.75;exitY=0.788;exitDx=0;exitDy=0;exitPerimeter=0;entryX=-0.064;entryY=0.973;entryDx=0;entryDy=0;entryPerimeter=0;" parent="EquBRPVDK-3WynH7pEUU-1" edge="1">
          <mxGeometry x="-0.0309" relative="1" as="geometry">
            <mxPoint x="505.64" y="578" as="sourcePoint" />
            <mxPoint x="722.4999999999997" y="578.1585" as="targetPoint" />
            <mxPoint as="offset" />
          </mxGeometry>
        </mxCell>
        <mxCell id="2ODXB2LE_u-hMNIpxes2-6" value="userTag(list&amp;lt;userID&amp;gt;)" style="html=1;verticalAlign=bottom;endArrow=block;labelBackgroundColor=none;fontFamily=Verdana;fontSize=12;edgeStyle=elbowEdgeStyle;elbow=vertical;" parent="EquBRPVDK-3WynH7pEUU-1" edge="1">
          <mxGeometry x="-0.0278" y="1" relative="1" as="geometry">
            <mxPoint x="505" y="605.21" as="sourcePoint" />
            <mxPoint x="720" y="605.21" as="targetPoint" />
            <mxPoint as="offset" />
          </mxGeometry>
        </mxCell>
        <mxCell id="2ODXB2LE_u-hMNIpxes2-8" value="saveCommentary(commentary)" style="html=1;verticalAlign=bottom;endArrow=block;labelBackgroundColor=none;fontFamily=Verdana;fontSize=12;edgeStyle=elbowEdgeStyle;elbow=vertical;exitX=0.971;exitY=0.784;exitDx=0;exitDy=0;exitPerimeter=0;" parent="EquBRPVDK-3WynH7pEUU-1" edge="1">
          <mxGeometry x="-0.0311" y="1" relative="1" as="geometry">
            <mxPoint x="504.71000000000004" y="661.6000000000001" as="sourcePoint" />
            <mxPoint x="722.5" y="662.2800000000001" as="targetPoint" />
            <mxPoint as="offset" />
          </mxGeometry>
        </mxCell>
        <mxCell id="Oj-s2nDpBH1uOAnklW3e-0" value="" style="edgeStyle=segmentEdgeStyle;endArrow=blockThin;html=1;curved=0;rounded=0;endSize=8;startSize=8;sourcePerimeterSpacing=0;targetPerimeterSpacing=0;endFill=0;" parent="EquBRPVDK-3WynH7pEUU-1" edge="1">
          <mxGeometry width="100" relative="1" as="geometry">
            <mxPoint x="730" y="690" as="sourcePoint" />
            <mxPoint x="730" y="700" as="targetPoint" />
            <Array as="points">
              <mxPoint x="802.5" y="690" />
            </Array>
          </mxGeometry>
        </mxCell>
        <mxCell id="RALYlQPomuBS1-g3w-rR-0" value="&lt;span style=&quot;color: rgb(0, 0, 0); font-family: Verdana; font-size: 12px; font-style: normal; font-variant-ligatures: normal; font-variant-caps: normal; font-weight: 400; letter-spacing: normal; orphans: 2; text-align: center; text-indent: 0px; text-transform: none; widows: 2; word-spacing: 0px; -webkit-text-stroke-width: 0px; white-space: nowrap; background-color: rgb(251, 251, 251); text-decoration-thickness: initial; text-decoration-style: initial; text-decoration-color: initial; float: none; display: inline !important;&quot;&gt;8. generateEmail(text)&lt;/span&gt;" style="text;whiteSpace=wrap;html=1;" parent="EquBRPVDK-3WynH7pEUU-1" vertex="1">
          <mxGeometry x="750" y="666" width="140" height="40" as="geometry" />
        </mxCell>
        <mxCell id="RALYlQPomuBS1-g3w-rR-2" value="" style="html=1;points=[];perimeter=orthogonalPerimeter;rounded=0;shadow=0;comic=0;labelBackgroundColor=none;strokeWidth=1;fontFamily=Verdana;fontSize=12;align=center;" parent="EquBRPVDK-3WynH7pEUU-1" vertex="1">
          <mxGeometry x="722.5" y="600" width="10" height="200" as="geometry" />
        </mxCell>
        <mxCell id="2ODXB2LE_u-hMNIpxes2-9" value="&lt;div&gt;&lt;br&gt;&lt;/div&gt;&lt;div&gt;&lt;br&gt;&lt;/div&gt;&lt;div&gt;&lt;br&gt;&lt;/div&gt;&lt;div&gt;&lt;br&gt;&lt;/div&gt;&lt;div&gt;&lt;br&gt;&lt;/div&gt;&lt;div&gt;&lt;br&gt;&lt;/div&gt;&lt;div&gt;&lt;span style=&quot;background-color: transparent; color: light-dark(rgb(0, 0, 0), rgb(255, 255, 255));&quot;&gt;* [repeat for each user]&lt;/span&gt;&lt;br&gt;&lt;/div&gt;" style="rounded=0;whiteSpace=wrap;html=1;fillColor=none;" parent="EquBRPVDK-3WynH7pEUU-1" vertex="1">
          <mxGeometry x="485" y="523" width="262.5" height="107" as="geometry" />
        </mxCell>
        <mxCell id="zMxCyTZVNS9hNLi-bTvo-5" value="reporting dashboard" style="html=1;verticalAlign=bottom;endArrow=none;labelBackgroundColor=none;fontFamily=Verdana;fontSize=12;edgeStyle=elbowEdgeStyle;elbow=vertical;startArrow=block;startFill=0;dashed=1;" parent="EquBRPVDK-3WynH7pEUU-1" edge="1">
          <mxGeometry x="0.0009" relative="1" as="geometry">
            <mxPoint x="507.5" y="417.5" as="sourcePoint" />
            <mxPoint x="722.5" y="417.5" as="targetPoint" />
            <mxPoint as="offset" />
          </mxGeometry>
        </mxCell>
        <mxCell id="zMxCyTZVNS9hNLi-bTvo-6" value="" style="edgeStyle=segmentEdgeStyle;endArrow=blockThin;html=1;curved=0;rounded=0;endSize=8;startSize=8;sourcePerimeterSpacing=0;targetPerimeterSpacing=0;endFill=0;" parent="EquBRPVDK-3WynH7pEUU-1" edge="1">
          <mxGeometry width="100" relative="1" as="geometry">
            <mxPoint x="732.5" y="366" as="sourcePoint" />
            <mxPoint x="732.5" y="376" as="targetPoint" />
            <Array as="points">
              <mxPoint x="802.5" y="366" />
            </Array>
          </mxGeometry>
        </mxCell>
        <mxCell id="zMxCyTZVNS9hNLi-bTvo-7" value="&lt;span style=&quot;color: rgb(0, 0, 0); font-family: Verdana; font-size: 12px; font-style: normal; font-variant-ligatures: normal; font-variant-caps: normal; font-weight: 400; letter-spacing: normal; orphans: 2; text-align: center; text-indent: 0px; text-transform: none; widows: 2; word-spacing: 0px; -webkit-text-stroke-width: 0px; white-space: nowrap; background-color: rgb(251, 251, 251); text-decoration-thickness: initial; text-decoration-style: initial; text-decoration-color: initial; float: none; display: inline !important;&quot;&gt;4. generateData()&lt;/span&gt;" style="text;whiteSpace=wrap;html=1;" parent="EquBRPVDK-3WynH7pEUU-1" vertex="1">
          <mxGeometry x="747.5" y="330" width="128.75" height="40" as="geometry" />
        </mxCell>
        <mxCell id="34hDA2sNUGLxZMIC2jdi-0" value=": Email System" style="rounded=0;whiteSpace=wrap;html=1;" parent="EquBRPVDK-3WynH7pEUU-1" vertex="1">
          <mxGeometry x="890" y="110" width="70" height="30" as="geometry" />
        </mxCell>
        <mxCell id="34hDA2sNUGLxZMIC2jdi-1" value="" style="endArrow=none;dashed=1;html=1;rounded=0;entryX=0.5;entryY=1;entryDx=0;entryDy=0;" parent="EquBRPVDK-3WynH7pEUU-1" edge="1">
          <mxGeometry width="50" height="50" relative="1" as="geometry">
            <mxPoint x="926" y="830" as="sourcePoint" />
            <mxPoint x="926" y="140" as="targetPoint" />
          </mxGeometry>
        </mxCell>
        <mxCell id="34hDA2sNUGLxZMIC2jdi-5" value="" style="endArrow=none;dashed=1;html=1;rounded=0;entryX=0.5;entryY=1;entryDx=0;entryDy=0;" parent="EquBRPVDK-3WynH7pEUU-1" source="EquBRPVDK-3WynH7pEUU-30" target="34hDA2sNUGLxZMIC2jdi-4" edge="1">
          <mxGeometry width="50" height="50" relative="1" as="geometry">
            <mxPoint x="1117" y="718" as="sourcePoint" />
            <mxPoint x="1117" y="140" as="targetPoint" />
          </mxGeometry>
        </mxCell>
        <mxCell id="34hDA2sNUGLxZMIC2jdi-4" value="" style="html=1;points=[];perimeter=orthogonalPerimeter;rounded=0;shadow=0;comic=0;labelBackgroundColor=none;strokeWidth=1;fontFamily=Verdana;fontSize=12;align=center;" parent="EquBRPVDK-3WynH7pEUU-1" vertex="1">
          <mxGeometry x="1111" y="370" width="10" height="45.25" as="geometry" />
        </mxCell>
        <mxCell id="34hDA2sNUGLxZMIC2jdi-6" value="5. generateDashboard(data)" style="html=1;verticalAlign=bottom;endArrow=block;labelBackgroundColor=none;fontFamily=Verdana;fontSize=12;edgeStyle=elbowEdgeStyle;elbow=vertical;entryX=-0.1;entryY=0.486;entryDx=0;entryDy=0;entryPerimeter=0;" parent="EquBRPVDK-3WynH7pEUU-1" edge="1">
          <mxGeometry x="0.5218" y="1" relative="1" as="geometry">
            <mxPoint x="732" y="385.63" as="sourcePoint" />
            <mxPoint x="1110" y="383.9915000000001" as="targetPoint" />
            <mxPoint as="offset" />
          </mxGeometry>
        </mxCell>
        <mxCell id="34hDA2sNUGLxZMIC2jdi-8" value="reporting dashboard" style="html=1;verticalAlign=bottom;endArrow=none;labelBackgroundColor=none;fontFamily=Verdana;fontSize=12;edgeStyle=elbowEdgeStyle;elbow=vertical;startArrow=block;startFill=0;dashed=1;exitX=0.75;exitY=0.879;exitDx=0;exitDy=0;exitPerimeter=0;entryX=-0.138;entryY=0.882;entryDx=0;entryDy=0;entryPerimeter=0;" parent="EquBRPVDK-3WynH7pEUU-1" edge="1">
          <mxGeometry x="0.4695" relative="1" as="geometry">
            <mxPoint x="732" y="410.0174999999999" as="sourcePoint" />
            <mxPoint x="1111.62" y="409.91050000000007" as="targetPoint" />
            <mxPoint as="offset" />
            <Array as="points">
              <mxPoint x="732" y="410" />
            </Array>
          </mxGeometry>
        </mxCell>
        <mxCell id="fkwgE0xfxCw-YB4QZ-hc-0" value="&lt;span style=&quot;color: rgb(0, 0, 0); font-family: Helvetica; font-size: 10px; font-style: normal; font-variant-ligatures: normal; font-variant-caps: normal; font-weight: 400; letter-spacing: normal; orphans: 2; text-align: left; text-indent: 0px; text-transform: none; widows: 2; word-spacing: 0px; -webkit-text-stroke-width: 0px; white-space: normal; background-color: rgb(251, 251, 251); text-decoration-thickness: initial; text-decoration-style: initial; text-decoration-color: initial; float: none; display: inline !important;&quot;&gt;5. System sends relevant information to external Reporting&amp;nbsp;System and displays returned dashboard.&amp;nbsp; Credit Officer reviews dashboard.&lt;/span&gt;" style="text;whiteSpace=wrap;html=1;" parent="EquBRPVDK-3WynH7pEUU-1" vertex="1">
          <mxGeometry x="251" y="385" width="198" height="40" as="geometry" />
        </mxCell>
        <mxCell id="EquBRPVDK-3WynH7pEUU-53" value="&lt;div&gt;&lt;br&gt;&lt;/div&gt;&lt;div&gt;&lt;br&gt;&lt;/div&gt;&lt;div&gt;&lt;br&gt;&lt;/div&gt;&lt;div&gt;&lt;br&gt;&lt;/div&gt;&lt;div&gt;&lt;br&gt;&lt;/div&gt;&lt;div&gt;&lt;br&gt;&lt;/div&gt;&lt;div&gt;&lt;br&gt;&lt;/div&gt;&lt;div&gt;&lt;br&gt;&lt;/div&gt;&lt;div&gt;&lt;br&gt;&lt;/div&gt;&lt;div&gt;&lt;br&gt;&lt;/div&gt;&lt;div&gt;&lt;br&gt;&lt;/div&gt;&lt;div&gt;&lt;br&gt;&lt;/div&gt;&lt;div&gt;&lt;br&gt;&lt;/div&gt;&lt;div&gt;&lt;br&gt;&lt;/div&gt;&lt;div&gt;&lt;br&gt;&lt;/div&gt;&lt;div&gt;&lt;br&gt;&lt;/div&gt;&lt;div&gt;&lt;br&gt;&lt;/div&gt;&lt;div&gt;&lt;br&gt;&lt;/div&gt;&lt;div&gt;&lt;br&gt;&lt;/div&gt;&lt;div&gt;&lt;span style=&quot;background-color: transparent; color: light-dark(rgb(0, 0, 0), rgb(255, 255, 255));&quot;&gt;&amp;nbsp; &amp;nbsp; &amp;nbsp; &amp;nbsp; &amp;nbsp; &amp;nbsp; &amp;nbsp; &amp;nbsp; * [repeat after System updates]&lt;/span&gt;&lt;br&gt;&lt;/div&gt;" style="rounded=0;whiteSpace=wrap;html=1;fillColor=none;" parent="EquBRPVDK-3WynH7pEUU-1" vertex="1">
          <mxGeometry x="240" y="170" width="670" height="290" as="geometry" />
        </mxCell>
      </root>
    </mxGraphModel>
  </diagram>
  <diagram name="Generate Cash Flow Data" id="R1ZqMACFX0COVgu20Kuk">
    <mxGraphModel dx="1728" dy="1037" grid="1" gridSize="10" guides="1" tooltips="1" connect="1" arrows="1" fold="1" page="1" pageScale="1" pageWidth="1100" pageHeight="850" background="none" math="0" shadow="0">
      <root>
        <mxCell id="xZduNKOSahVENqJoozvG-0" />
        <mxCell id="xZduNKOSahVENqJoozvG-1" parent="xZduNKOSahVENqJoozvG-0" />
        <mxCell id="xZduNKOSahVENqJoozvG-3" value=": Treasury Analyst" style="shape=umlActor;verticalLabelPosition=bottom;verticalAlign=top;html=1;outlineConnect=0;" parent="xZduNKOSahVENqJoozvG-1" vertex="1">
          <mxGeometry x="485" y="50" width="30" height="60" as="geometry" />
        </mxCell>
        <mxCell id="xZduNKOSahVENqJoozvG-4" value="" style="endArrow=none;dashed=1;html=1;rounded=0;" parent="xZduNKOSahVENqJoozvG-1" edge="1">
          <mxGeometry width="50" height="50" relative="1" as="geometry">
            <mxPoint x="500" y="720" as="sourcePoint" />
            <mxPoint x="500" y="140" as="targetPoint" />
          </mxGeometry>
        </mxCell>
        <mxCell id="xZduNKOSahVENqJoozvG-5" value=": System" style="rounded=0;whiteSpace=wrap;html=1;" parent="xZduNKOSahVENqJoozvG-1" vertex="1">
          <mxGeometry x="690" y="110" width="75" height="30" as="geometry" />
        </mxCell>
        <mxCell id="xZduNKOSahVENqJoozvG-6" value="&lt;span style=&quot;font-size: 10px;&quot;&gt;1. Treasury Analyst selects ‘Cash Activity” from Treasury Operations screen&lt;/span&gt;" style="text;whiteSpace=wrap;html=1;" parent="xZduNKOSahVENqJoozvG-1" vertex="1">
          <mxGeometry x="251" y="170" width="200" height="40" as="geometry" />
        </mxCell>
        <mxCell id="xZduNKOSahVENqJoozvG-7" value="&lt;p style=&quot;margin-bottom: 0in; line-height: normal;&quot; class=&quot;MsoNormal&quot;&gt;&lt;span style=&quot;font-size: 10px;&quot;&gt;3. Treasury Analyst selects various options, including date, activity type, receiving&lt;/span&gt;&lt;br style=&quot;font-size: 10px;&quot;&gt;&lt;span style=&quot;font-size: 10px;&quot;&gt;bank account, etc. and selects ‘Generate Activity’&lt;/span&gt;&lt;br&gt;&lt;/p&gt;" style="text;whiteSpace=wrap;html=1;" parent="xZduNKOSahVENqJoozvG-1" vertex="1">
          <mxGeometry x="252" y="230" width="200" height="50" as="geometry" />
        </mxCell>
        <mxCell id="xZduNKOSahVENqJoozvG-8" value="&lt;p class=&quot;MsoNormal&quot;&gt;&lt;font style=&quot;forced-color-adjust: none; color: rgb(0, 0, 0); font-family: Helvetica; font-style: normal; font-variant-ligatures: normal; font-variant-caps: normal; font-weight: 400; letter-spacing: normal; orphans: 2; text-align: left; text-indent: 0px; text-transform: none; widows: 2; word-spacing: 0px; -webkit-text-stroke-width: 0px; white-space: normal; background-color: rgb(251, 251, 251); text-decoration-thickness: initial; text-decoration-style: initial; text-decoration-color: initial; font-size: 10px;&quot; face=&quot;Helvetica&quot;&gt;&lt;/font&gt;&lt;/p&gt;&lt;p style=&quot;forced-color-adjust: none; color: rgb(0, 0, 0); font-family: Helvetica; font-size: 12px; font-style: normal; font-variant-ligatures: normal; font-variant-caps: normal; font-weight: 400; letter-spacing: normal; orphans: 2; text-align: left; text-indent: 0px; text-transform: none; widows: 2; word-spacing: 0px; -webkit-text-stroke-width: 0px; white-space: normal; background-color: rgb(251, 251, 251); text-decoration-thickness: initial; text-decoration-style: initial; text-decoration-color: initial; margin-bottom: 0in; line-height: normal;&quot; class=&quot;MsoNormal&quot;&gt;&lt;font style=&quot;forced-color-adjust: none; color: rgb(0, 0, 0); font-family: Helvetica; font-style: normal; font-variant-ligatures: normal; font-variant-caps: normal; font-weight: 400; letter-spacing: normal; orphans: 2; text-align: left; text-indent: 0px; text-transform: none; widows: 2; word-spacing: 0px; -webkit-text-stroke-width: 0px; white-space: normal; background-color: rgb(251, 251, 251); text-decoration-thickness: initial; text-decoration-style: initial; text-decoration-color: initial; font-size: 10px;&quot; face=&quot;Helvetica&quot;&gt;&lt;/font&gt;&lt;/p&gt;&lt;p style=&quot;forced-color-adjust: none; color: rgb(0, 0, 0); font-family: Helvetica; font-size: 12px; font-style: normal; font-variant-ligatures: normal; font-variant-caps: normal; font-weight: 400; letter-spacing: normal; orphans: 2; text-align: left; text-indent: 0px; text-transform: none; widows: 2; word-spacing: 0px; -webkit-text-stroke-width: 0px; white-space: normal; background-color: rgb(251, 251, 251); text-decoration-thickness: initial; text-decoration-style: initial; text-decoration-color: initial; margin-bottom: 0in; line-height: normal;&quot; class=&quot;MsoNormal&quot;&gt;&lt;font style=&quot;forced-color-adjust: none; font-size: 10px;&quot; face=&quot;Helvetica&quot;&gt;4. System&amp;nbsp;processes request&lt;/font&gt;&lt;/p&gt;" style="text;whiteSpace=wrap;html=1;" parent="xZduNKOSahVENqJoozvG-1" vertex="1">
          <mxGeometry x="252" y="337.5" width="200" height="50" as="geometry" />
        </mxCell>
        <mxCell id="xZduNKOSahVENqJoozvG-10" value="&lt;p class=&quot;MsoNormal&quot;&gt;&lt;font style=&quot;forced-color-adjust: none; color: rgb(0, 0, 0); font-family: Helvetica; font-style: normal; font-variant-ligatures: normal; font-variant-caps: normal; font-weight: 400; letter-spacing: normal; orphans: 2; text-align: left; text-indent: 0px; text-transform: none; widows: 2; word-spacing: 0px; -webkit-text-stroke-width: 0px; white-space: normal; background-color: rgb(251, 251, 251); text-decoration-thickness: initial; text-decoration-style: initial; text-decoration-color: initial; font-size: 10px;&quot; face=&quot;Helvetica&quot;&gt;&lt;/font&gt;&lt;/p&gt;&lt;p style=&quot;forced-color-adjust: none; color: rgb(0, 0, 0); font-family: Helvetica; font-size: 12px; font-style: normal; font-variant-ligatures: normal; font-variant-caps: normal; font-weight: 400; letter-spacing: normal; orphans: 2; text-align: left; text-indent: 0px; text-transform: none; widows: 2; word-spacing: 0px; -webkit-text-stroke-width: 0px; white-space: normal; text-decoration-thickness: initial; text-decoration-style: initial; text-decoration-color: initial; margin-bottom: 0in; line-height: normal;&quot; class=&quot;MsoNormal&quot;&gt;&lt;font style=&quot;forced-color-adjust: none; font-size: 10px;&quot; face=&quot;Helvetica&quot;&gt;6. After&amp;nbsp;review, Treasury analyst selections ‘Transmit to banking software&#39;&lt;/font&gt;&lt;/p&gt;" style="text;whiteSpace=wrap;html=1;" parent="xZduNKOSahVENqJoozvG-1" vertex="1">
          <mxGeometry x="252" y="510" width="200" height="50" as="geometry" />
        </mxCell>
        <mxCell id="xZduNKOSahVENqJoozvG-11" value="" style="html=1;points=[];perimeter=orthogonalPerimeter;rounded=0;shadow=0;comic=0;labelBackgroundColor=none;strokeWidth=1;fontFamily=Verdana;fontSize=12;align=center;" parent="xZduNKOSahVENqJoozvG-1" vertex="1">
          <mxGeometry x="495" y="170" width="10" height="510" as="geometry" />
        </mxCell>
        <mxCell id="xZduNKOSahVENqJoozvG-12" value="2. cash activity page" style="html=1;verticalAlign=bottom;endArrow=none;labelBackgroundColor=none;fontFamily=Verdana;fontSize=12;edgeStyle=elbowEdgeStyle;elbow=vertical;startArrow=block;startFill=0;dashed=1;" parent="xZduNKOSahVENqJoozvG-1" edge="1">
          <mxGeometry relative="1" as="geometry">
            <mxPoint x="505" y="228" as="sourcePoint" />
            <mxPoint x="720" y="228" as="targetPoint" />
          </mxGeometry>
        </mxCell>
        <mxCell id="xZduNKOSahVENqJoozvG-13" value="1. selectCashActivity()" style="html=1;verticalAlign=bottom;endArrow=block;labelBackgroundColor=none;fontFamily=Verdana;fontSize=12;edgeStyle=elbowEdgeStyle;elbow=vertical;" parent="xZduNKOSahVENqJoozvG-1" edge="1">
          <mxGeometry x="-0.0007" relative="1" as="geometry">
            <mxPoint x="507.5" y="193.56" as="sourcePoint" />
            <mxPoint x="722.5" y="193.56" as="targetPoint" />
            <mxPoint as="offset" />
          </mxGeometry>
        </mxCell>
        <mxCell id="xZduNKOSahVENqJoozvG-14" value="" style="endArrow=none;dashed=1;html=1;rounded=0;entryX=0.5;entryY=1;entryDx=0;entryDy=0;" parent="xZduNKOSahVENqJoozvG-1" source="xZduNKOSahVENqJoozvG-25" target="xZduNKOSahVENqJoozvG-5" edge="1">
          <mxGeometry width="50" height="50" relative="1" as="geometry">
            <mxPoint x="728" y="600" as="sourcePoint" />
            <mxPoint x="727.5" y="314" as="targetPoint" />
          </mxGeometry>
        </mxCell>
        <mxCell id="xZduNKOSahVENqJoozvG-15" value="&lt;span style=&quot;font-size: 10px;&quot;&gt;&lt;u&gt;Generate Cash Flow Data&lt;/u&gt;&lt;/span&gt;" style="text;whiteSpace=wrap;html=1;" parent="xZduNKOSahVENqJoozvG-1" vertex="1">
          <mxGeometry x="276" y="130" width="152" height="50" as="geometry" />
        </mxCell>
        <mxCell id="xZduNKOSahVENqJoozvG-16" value="&lt;p class=&quot;MsoNormal&quot;&gt;&lt;font style=&quot;forced-color-adjust: none; color: rgb(0, 0, 0); font-family: Helvetica; font-style: normal; font-variant-ligatures: normal; font-variant-caps: normal; font-weight: 400; letter-spacing: normal; orphans: 2; text-align: left; text-indent: 0px; text-transform: none; widows: 2; word-spacing: 0px; -webkit-text-stroke-width: 0px; white-space: normal; background-color: rgb(251, 251, 251); text-decoration-thickness: initial; text-decoration-style: initial; text-decoration-color: initial; font-size: 10px;&quot; face=&quot;Helvetica&quot;&gt;&lt;/font&gt;&lt;/p&gt;&lt;p style=&quot;forced-color-adjust: none; color: rgb(0, 0, 0); font-family: Helvetica; font-size: 12px; font-style: normal; font-variant-ligatures: normal; font-variant-caps: normal; font-weight: 400; letter-spacing: normal; orphans: 2; text-align: left; text-indent: 0px; text-transform: none; widows: 2; word-spacing: 0px; -webkit-text-stroke-width: 0px; white-space: normal; background-color: rgb(251, 251, 251); text-decoration-thickness: initial; text-decoration-style: initial; text-decoration-color: initial; margin-bottom: 0in; line-height: normal;&quot; class=&quot;MsoNormal&quot;&gt;&lt;font style=&quot;forced-color-adjust: none; color: rgb(0, 0, 0); font-family: Helvetica; font-style: normal; font-variant-ligatures: normal; font-variant-caps: normal; font-weight: 400; letter-spacing: normal; orphans: 2; text-align: left; text-indent: 0px; text-transform: none; widows: 2; word-spacing: 0px; -webkit-text-stroke-width: 0px; white-space: normal; background-color: rgb(251, 251, 251); text-decoration-thickness: initial; text-decoration-style: initial; text-decoration-color: initial; font-size: 10px;&quot; face=&quot;Helvetica&quot;&gt;&lt;/font&gt;&lt;/p&gt;&lt;p style=&quot;forced-color-adjust: none; color: rgb(0, 0, 0); font-family: Helvetica; font-size: 12px; font-style: normal; font-variant-ligatures: normal; font-variant-caps: normal; font-weight: 400; letter-spacing: normal; orphans: 2; text-align: left; text-indent: 0px; text-transform: none; widows: 2; word-spacing: 0px; -webkit-text-stroke-width: 0px; white-space: normal; background-color: rgb(251, 251, 251); text-decoration-thickness: initial; text-decoration-style: initial; text-decoration-color: initial; margin-bottom: 0in; line-height: normal;&quot; class=&quot;MsoNormal&quot;&gt;&lt;span style=&quot;font-size: 10px;&quot;&gt;2. System displays ‘Cash Activity’ page&lt;/span&gt;&lt;br&gt;&lt;/p&gt;" style="text;whiteSpace=wrap;html=1;" parent="xZduNKOSahVENqJoozvG-1" vertex="1">
          <mxGeometry x="250" y="196" width="200" height="50" as="geometry" />
        </mxCell>
        <mxCell id="xZduNKOSahVENqJoozvG-17" value="&lt;span style=&quot;color: rgb(0, 0, 0); font-family: Verdana; font-size: 12px; font-style: normal; font-variant-ligatures: normal; font-variant-caps: normal; font-weight: 400; letter-spacing: normal; orphans: 2; text-align: center; text-indent: 0px; text-transform: none; widows: 2; word-spacing: 0px; -webkit-text-stroke-width: 0px; white-space: nowrap; background-color: rgb(251, 251, 251); text-decoration-thickness: initial; text-decoration-style: initial; text-decoration-color: initial; float: none; display: inline !important;&quot;&gt;3. cashOption: = selection&lt;/span&gt;" style="text;whiteSpace=wrap;html=1;" parent="xZduNKOSahVENqJoozvG-1" vertex="1">
          <mxGeometry x="540" y="246" width="140" height="40" as="geometry" />
        </mxCell>
        <mxCell id="xZduNKOSahVENqJoozvG-18" value="" style="html=1;points=[];perimeter=orthogonalPerimeter;rounded=0;shadow=0;comic=0;labelBackgroundColor=none;strokeWidth=1;fontFamily=Verdana;fontSize=12;align=center;" parent="xZduNKOSahVENqJoozvG-1" vertex="1">
          <mxGeometry x="722.5" y="190" width="10" height="40" as="geometry" />
        </mxCell>
        <mxCell id="xZduNKOSahVENqJoozvG-19" value=": Banking Software" style="rounded=0;whiteSpace=wrap;html=1;" parent="xZduNKOSahVENqJoozvG-1" vertex="1">
          <mxGeometry x="1032" y="110" width="70" height="30" as="geometry" />
        </mxCell>
        <mxCell id="xZduNKOSahVENqJoozvG-20" value="" style="endArrow=none;dashed=1;html=1;rounded=0;entryX=0.5;entryY=1;entryDx=0;entryDy=0;" parent="xZduNKOSahVENqJoozvG-1" source="xZduNKOSahVENqJoozvG-21" target="xZduNKOSahVENqJoozvG-19" edge="1">
          <mxGeometry width="50" height="50" relative="1" as="geometry">
            <mxPoint x="1067" y="830" as="sourcePoint" />
            <mxPoint x="1065.5" y="313" as="targetPoint" />
          </mxGeometry>
        </mxCell>
        <mxCell id="xZduNKOSahVENqJoozvG-22" value="&lt;p class=&quot;MsoNormal&quot;&gt;&lt;font style=&quot;forced-color-adjust: none; color: rgb(0, 0, 0); font-family: Helvetica; font-style: normal; font-variant-ligatures: normal; font-variant-caps: normal; font-weight: 400; letter-spacing: normal; orphans: 2; text-align: left; text-indent: 0px; text-transform: none; widows: 2; word-spacing: 0px; -webkit-text-stroke-width: 0px; white-space: normal; background-color: rgb(251, 251, 251); text-decoration-thickness: initial; text-decoration-style: initial; text-decoration-color: initial; font-size: 10px;&quot;&gt;&lt;/font&gt;&lt;/p&gt;&lt;p style=&quot;forced-color-adjust: none; color: rgb(0, 0, 0); font-style: normal; font-variant-ligatures: normal; font-variant-caps: normal; font-weight: 400; letter-spacing: normal; orphans: 2; text-align: left; text-indent: 0px; text-transform: none; widows: 2; word-spacing: 0px; -webkit-text-stroke-width: 0px; white-space: normal; text-decoration-thickness: initial; text-decoration-style: initial; text-decoration-color: initial; margin-bottom: 0in; line-height: normal;&quot; class=&quot;MsoNormal&quot;&gt;&lt;span style=&quot;font-size: 10px;&quot;&gt;7. System formats data and transmits to banking software (for reconciliation services offered by&amp;nbsp;&lt;/span&gt;&lt;span style=&quot;font-size: 10px;&quot;&gt;banking software)&lt;/span&gt;&lt;br&gt;&lt;/p&gt;" style="text;whiteSpace=wrap;html=1;" parent="xZduNKOSahVENqJoozvG-1" vertex="1">
          <mxGeometry x="252" y="555" width="200" height="50" as="geometry" />
        </mxCell>
        <mxCell id="xZduNKOSahVENqJoozvG-23" value="&lt;div&gt;&lt;br&gt;&lt;/div&gt;&lt;div&gt;&lt;br&gt;&lt;/div&gt;&lt;div&gt;&lt;br&gt;&lt;/div&gt;&lt;div&gt;&lt;br&gt;&lt;/div&gt;&lt;div&gt;&lt;span style=&quot;background-color: transparent; color: light-dark(rgb(0, 0, 0), rgb(255, 255, 255));&quot;&gt;* [repeat for each field]&lt;/span&gt;&lt;br&gt;&lt;/div&gt;" style="rounded=0;whiteSpace=wrap;html=1;fillColor=none;" parent="xZduNKOSahVENqJoozvG-1" vertex="1">
          <mxGeometry x="477.5" y="246" width="255" height="43" as="geometry" />
        </mxCell>
        <mxCell id="xZduNKOSahVENqJoozvG-24" value="" style="endArrow=none;dashed=1;html=1;rounded=0;entryX=0.5;entryY=1;entryDx=0;entryDy=0;" parent="xZduNKOSahVENqJoozvG-1" source="xZduNKOSahVENqJoozvG-41" target="xZduNKOSahVENqJoozvG-25" edge="1">
          <mxGeometry width="50" height="50" relative="1" as="geometry">
            <mxPoint x="727.5" y="427.5" as="sourcePoint" />
            <mxPoint x="728" y="140" as="targetPoint" />
          </mxGeometry>
        </mxCell>
        <mxCell id="xZduNKOSahVENqJoozvG-25" value="" style="html=1;points=[];perimeter=orthogonalPerimeter;rounded=0;shadow=0;comic=0;labelBackgroundColor=none;strokeWidth=1;fontFamily=Verdana;fontSize=12;align=center;" parent="xZduNKOSahVENqJoozvG-1" vertex="1">
          <mxGeometry x="722.5" y="337.5" width="10" height="122.5" as="geometry" />
        </mxCell>
        <mxCell id="xZduNKOSahVENqJoozvG-26" value="generateActivity(selections)" style="html=1;verticalAlign=bottom;endArrow=block;labelBackgroundColor=none;fontFamily=Verdana;fontSize=12;edgeStyle=elbowEdgeStyle;elbow=horizontal;" parent="xZduNKOSahVENqJoozvG-1" edge="1">
          <mxGeometry x="0.0008" relative="1" as="geometry">
            <mxPoint x="505" y="346.18" as="sourcePoint" />
            <mxPoint x="720" y="346.18" as="targetPoint" />
            <mxPoint as="offset" />
          </mxGeometry>
        </mxCell>
        <mxCell id="xZduNKOSahVENqJoozvG-33" value="" style="edgeStyle=segmentEdgeStyle;endArrow=blockThin;html=1;curved=0;rounded=0;endSize=8;startSize=8;sourcePerimeterSpacing=0;targetPerimeterSpacing=0;endFill=0;" parent="xZduNKOSahVENqJoozvG-1" edge="1">
          <mxGeometry width="100" relative="1" as="geometry">
            <mxPoint x="505" y="269.94000000000005" as="sourcePoint" />
            <mxPoint x="505" y="279.94000000000005" as="targetPoint" />
            <Array as="points">
              <mxPoint x="575" y="269.94000000000005" />
            </Array>
          </mxGeometry>
        </mxCell>
        <mxCell id="xZduNKOSahVENqJoozvG-45" value="transmitToBank(frmtData)" style="html=1;verticalAlign=bottom;endArrow=block;labelBackgroundColor=none;fontFamily=Verdana;fontSize=12;edgeStyle=elbowEdgeStyle;elbow=vertical;exitX=0.971;exitY=0.784;exitDx=0;exitDy=0;exitPerimeter=0;entryX=-0.067;entryY=0.38;entryDx=0;entryDy=0;entryPerimeter=0;" parent="xZduNKOSahVENqJoozvG-1" target="xZduNKOSahVENqJoozvG-21" edge="1">
          <mxGeometry x="-0.4635" relative="1" as="geometry">
            <mxPoint x="732.21" y="620.0000000000001" as="sourcePoint" />
            <mxPoint x="950" y="620.6800000000001" as="targetPoint" />
            <mxPoint as="offset" />
          </mxGeometry>
        </mxCell>
        <mxCell id="sJFxdf0OXeNPXcGyp_Rn-0" value="" style="edgeStyle=segmentEdgeStyle;endArrow=blockThin;html=1;curved=0;rounded=0;endSize=8;startSize=8;sourcePerimeterSpacing=0;targetPerimeterSpacing=0;endFill=0;" parent="xZduNKOSahVENqJoozvG-1" edge="1">
          <mxGeometry width="100" relative="1" as="geometry">
            <mxPoint x="732.5" y="370.00000000000006" as="sourcePoint" />
            <mxPoint x="732.5" y="380.00000000000006" as="targetPoint" />
            <Array as="points">
              <mxPoint x="802.5" y="370.00000000000006" />
            </Array>
          </mxGeometry>
        </mxCell>
        <mxCell id="sJFxdf0OXeNPXcGyp_Rn-1" value="&lt;span style=&quot;color: rgb(0, 0, 0); font-family: Verdana; font-size: 12px; font-style: normal; font-variant-ligatures: normal; font-variant-caps: normal; font-weight: 400; letter-spacing: normal; orphans: 2; text-align: center; text-indent: 0px; text-transform: none; widows: 2; word-spacing: 0px; -webkit-text-stroke-width: 0px; white-space: nowrap; background-color: rgb(251, 251, 251); text-decoration-thickness: initial; text-decoration-style: initial; text-decoration-color: initial; float: none; display: inline !important;&quot;&gt;4. processReq(selections)&lt;/span&gt;" style="text;whiteSpace=wrap;html=1;" parent="xZduNKOSahVENqJoozvG-1" vertex="1">
          <mxGeometry x="732.5" y="347.5" width="170" height="40" as="geometry" />
        </mxCell>
        <mxCell id="sJFxdf0OXeNPXcGyp_Rn-8" value="" style="endArrow=none;dashed=1;html=1;rounded=0;entryX=0.5;entryY=1;entryDx=0;entryDy=0;" parent="xZduNKOSahVENqJoozvG-1" target="xZduNKOSahVENqJoozvG-41" edge="1">
          <mxGeometry width="50" height="50" relative="1" as="geometry">
            <mxPoint x="728" y="720" as="sourcePoint" />
            <mxPoint x="728" y="490" as="targetPoint" />
          </mxGeometry>
        </mxCell>
        <mxCell id="xZduNKOSahVENqJoozvG-41" value="" style="html=1;points=[];perimeter=orthogonalPerimeter;rounded=0;shadow=0;comic=0;labelBackgroundColor=none;strokeWidth=1;fontFamily=Verdana;fontSize=12;align=center;" parent="xZduNKOSahVENqJoozvG-1" vertex="1">
          <mxGeometry x="722.5" y="520" width="10" height="150" as="geometry" />
        </mxCell>
        <mxCell id="sJFxdf0OXeNPXcGyp_Rn-9" value="6. transmitToBank()" style="html=1;verticalAlign=bottom;endArrow=block;labelBackgroundColor=none;fontFamily=Verdana;fontSize=12;edgeStyle=elbowEdgeStyle;elbow=vertical;exitX=0.971;exitY=0.784;exitDx=0;exitDy=0;exitPerimeter=0;" parent="xZduNKOSahVENqJoozvG-1" edge="1">
          <mxGeometry x="-0.0278" y="1" relative="1" as="geometry">
            <mxPoint x="504.71000000000004" y="534.6600000000001" as="sourcePoint" />
            <mxPoint x="722.5" y="535.3400000000001" as="targetPoint" />
            <mxPoint as="offset" />
          </mxGeometry>
        </mxCell>
        <mxCell id="sJFxdf0OXeNPXcGyp_Rn-10" value="" style="endArrow=none;dashed=1;html=1;rounded=0;entryX=0.5;entryY=1;entryDx=0;entryDy=0;" parent="xZduNKOSahVENqJoozvG-1" target="xZduNKOSahVENqJoozvG-21" edge="1">
          <mxGeometry width="50" height="50" relative="1" as="geometry">
            <mxPoint x="1067" y="720" as="sourcePoint" />
            <mxPoint x="1067" y="140" as="targetPoint" />
          </mxGeometry>
        </mxCell>
        <mxCell id="xZduNKOSahVENqJoozvG-21" value="" style="html=1;points=[];perimeter=orthogonalPerimeter;rounded=0;shadow=0;comic=0;labelBackgroundColor=none;strokeWidth=1;fontFamily=Verdana;fontSize=12;align=center;" parent="xZduNKOSahVENqJoozvG-1" vertex="1">
          <mxGeometry x="1062" y="600" width="10" height="50" as="geometry" />
        </mxCell>
        <mxCell id="sJFxdf0OXeNPXcGyp_Rn-11" value="&lt;div style=&quot;text-align: center;&quot;&gt;&lt;span style=&quot;background-color: transparent; color: light-dark(rgb(0, 0, 0), rgb(255, 255, 255)); text-wrap: nowrap;&quot;&gt;&lt;font face=&quot;Verdana&quot;&gt;7. formatForBank(data)&lt;/font&gt;&lt;/span&gt;&lt;/div&gt;" style="text;whiteSpace=wrap;html=1;" parent="xZduNKOSahVENqJoozvG-1" vertex="1">
          <mxGeometry x="735" y="560" width="170" height="40" as="geometry" />
        </mxCell>
        <mxCell id="sJFxdf0OXeNPXcGyp_Rn-12" value="" style="edgeStyle=segmentEdgeStyle;endArrow=blockThin;html=1;curved=0;rounded=0;endSize=8;startSize=8;sourcePerimeterSpacing=0;targetPerimeterSpacing=0;endFill=0;" parent="xZduNKOSahVENqJoozvG-1" edge="1">
          <mxGeometry width="100" relative="1" as="geometry">
            <mxPoint x="732.5" y="590" as="sourcePoint" />
            <mxPoint x="732.5" y="600" as="targetPoint" />
            <Array as="points">
              <mxPoint x="802.5" y="590" />
            </Array>
          </mxGeometry>
        </mxCell>
        <mxCell id="sJFxdf0OXeNPXcGyp_Rn-13" value="confirmation" style="html=1;verticalAlign=bottom;endArrow=none;labelBackgroundColor=none;fontFamily=Verdana;fontSize=12;edgeStyle=elbowEdgeStyle;elbow=horizontal;startArrow=block;startFill=0;dashed=1;exitX=1.2;exitY=0.947;exitDx=0;exitDy=0;exitPerimeter=0;" parent="xZduNKOSahVENqJoozvG-1" edge="1">
          <mxGeometry x="-0.4164" y="1" relative="1" as="geometry">
            <mxPoint x="735" y="640.55" as="sourcePoint" />
            <mxPoint x="1060" y="640" as="targetPoint" />
            <mxPoint as="offset" />
          </mxGeometry>
        </mxCell>
        <mxCell id="sJFxdf0OXeNPXcGyp_Rn-14" value="confirmation" style="html=1;verticalAlign=bottom;endArrow=none;labelBackgroundColor=none;fontFamily=Verdana;fontSize=12;edgeStyle=elbowEdgeStyle;elbow=horizontal;startArrow=block;startFill=0;dashed=1;exitX=1.2;exitY=0.947;exitDx=0;exitDy=0;exitPerimeter=0;" parent="xZduNKOSahVENqJoozvG-1" edge="1">
          <mxGeometry x="-0.0354" y="1" relative="1" as="geometry">
            <mxPoint x="505" y="656.55" as="sourcePoint" />
            <mxPoint x="719.5" y="656" as="targetPoint" />
            <mxPoint as="offset" />
          </mxGeometry>
        </mxCell>
        <mxCell id="V7dN9MCsM_kzW0CzenlM-0" value=": Reporting&lt;div&gt;Software&lt;/div&gt;" style="rounded=0;whiteSpace=wrap;html=1;" parent="xZduNKOSahVENqJoozvG-1" vertex="1">
          <mxGeometry x="870" y="107.5" width="70" height="30" as="geometry" />
        </mxCell>
        <mxCell id="V7dN9MCsM_kzW0CzenlM-1" value="" style="endArrow=none;dashed=1;html=1;rounded=0;entryX=0.5;entryY=1;entryDx=0;entryDy=0;" parent="xZduNKOSahVENqJoozvG-1" source="xNUKinFje7dQnf933ZIi-0" target="V7dN9MCsM_kzW0CzenlM-0" edge="1">
          <mxGeometry width="50" height="50" relative="1" as="geometry">
            <mxPoint x="905" y="827.5" as="sourcePoint" />
            <mxPoint x="903.5" y="310.5" as="targetPoint" />
          </mxGeometry>
        </mxCell>
        <mxCell id="tFy0Bj2B7pCYRHvXZJmx-0" value="&lt;span style=&quot;color: rgb(0, 0, 0); font-family: Helvetica; font-size: 10px; font-style: normal; font-variant-ligatures: normal; font-variant-caps: normal; font-weight: 400; letter-spacing: normal; orphans: 2; text-align: left; text-indent: 0px; text-transform: none; widows: 2; word-spacing: 0px; -webkit-text-stroke-width: 0px; white-space: normal; background-color: rgb(251, 251, 251); text-decoration-thickness: initial; text-decoration-style: initial; text-decoration-color: initial; float: none; display: inline !important;&quot;&gt;5. System sends data to external Reporting&amp;nbsp;System and displays returned report&lt;/span&gt;" style="text;whiteSpace=wrap;html=1;" parent="xZduNKOSahVENqJoozvG-1" vertex="1">
          <mxGeometry x="254" y="405" width="198" height="40" as="geometry" />
        </mxCell>
        <mxCell id="xNUKinFje7dQnf933ZIi-1" value="" style="endArrow=none;dashed=1;html=1;rounded=0;entryX=0.5;entryY=1;entryDx=0;entryDy=0;" parent="xZduNKOSahVENqJoozvG-1" target="xNUKinFje7dQnf933ZIi-0" edge="1">
          <mxGeometry width="50" height="50" relative="1" as="geometry">
            <mxPoint x="905" y="720" as="sourcePoint" />
            <mxPoint x="905" y="138" as="targetPoint" />
          </mxGeometry>
        </mxCell>
        <mxCell id="xNUKinFje7dQnf933ZIi-0" value="" style="html=1;points=[];perimeter=orthogonalPerimeter;rounded=0;shadow=0;comic=0;labelBackgroundColor=none;strokeWidth=1;fontFamily=Verdana;fontSize=12;align=center;" parent="xZduNKOSahVENqJoozvG-1" vertex="1">
          <mxGeometry x="900" y="378" width="10" height="95" as="geometry" />
        </mxCell>
        <mxCell id="dUB1omCbH5E09OhQ_uzO-0" value="5. generateRep(data)" style="html=1;verticalAlign=bottom;endArrow=block;labelBackgroundColor=none;fontFamily=Verdana;fontSize=12;edgeStyle=elbowEdgeStyle;elbow=horizontal;" parent="xZduNKOSahVENqJoozvG-1" edge="1">
          <mxGeometry x="0.003" relative="1" as="geometry">
            <mxPoint x="732.5" y="405" as="sourcePoint" />
            <mxPoint x="900" y="405" as="targetPoint" />
            <mxPoint as="offset" />
          </mxGeometry>
        </mxCell>
        <mxCell id="dUB1omCbH5E09OhQ_uzO-2" value="report" style="html=1;verticalAlign=bottom;endArrow=none;labelBackgroundColor=none;fontFamily=Verdana;fontSize=12;edgeStyle=elbowEdgeStyle;elbow=vertical;startArrow=block;startFill=0;dashed=1;" parent="xZduNKOSahVENqJoozvG-1" edge="1">
          <mxGeometry x="-0.0037" relative="1" as="geometry">
            <mxPoint x="730" y="430" as="sourcePoint" />
            <mxPoint x="902.5" y="430.14" as="targetPoint" />
            <mxPoint as="offset" />
          </mxGeometry>
        </mxCell>
        <mxCell id="dUB1omCbH5E09OhQ_uzO-3" value="report" style="html=1;verticalAlign=bottom;endArrow=none;labelBackgroundColor=none;fontFamily=Verdana;fontSize=12;edgeStyle=elbowEdgeStyle;elbow=vertical;startArrow=block;startFill=0;dashed=1;exitX=1.176;exitY=0.55;exitDx=0;exitDy=0;exitPerimeter=0;" parent="xZduNKOSahVENqJoozvG-1" source="xZduNKOSahVENqJoozvG-11" edge="1">
          <mxGeometry relative="1" as="geometry">
            <mxPoint x="550" y="450.07" as="sourcePoint" />
            <mxPoint x="722.5" y="450.21" as="targetPoint" />
          </mxGeometry>
        </mxCell>
      </root>
    </mxGraphModel>
  </diagram>
</mxfile>
